<svg width="35" height="35" viewBox="0 0 35 35" fill="none" xmlns="http://www.w3.org/2000/svg">
<circle cx="17.5" cy="17.5" r="17" fill="white" stroke="#F04E00"/>
<path d="M24.4995 21.7306L23.9995 21.7181V21.7306H24.4995ZM24.4995 23.9887H23.9995L23.9995 23.9907L24.4995 23.9887ZM11.0068 10.5001V10.0001L11.0063 10.0001L11.0068 10.5001ZM13.2694 10.5001V11.0001L13.2743 11L13.2694 10.5001ZM14.2678 10.864L13.9421 11.2434V11.2434L14.2678 10.864ZM14.0085 16.454L13.6553 16.1001C13.4957 16.2594 13.4625 16.5057 13.5741 16.7016L14.0085 16.454ZM18.5337 20.9703L18.287 21.4052C18.4824 21.5161 18.7279 21.483 18.8869 21.3242L18.5337 20.9703ZM24.1424 20.72L24.5236 20.3964L24.1424 20.72ZM15.369 14.7536L15.858 14.8581L15.369 14.7536ZM20.2376 19.6125L20.3417 20.1015L20.2376 19.6125ZM22.8553 25.4941L22.9002 24.9961C22.8852 24.9948 22.8701 24.9941 22.8549 24.9941L22.8553 25.4941ZM9.50589 12.141L10.0059 12.1414C10.0059 12.1262 10.0052 12.111 10.0039 12.0959L9.50589 12.141ZM19.179 12.9259C18.908 12.873 18.6454 13.0499 18.5925 13.3209C18.5397 13.592 18.7165 13.8545 18.9875 13.9074L19.179 12.9259ZM21.0925 16.0124C21.1454 16.2834 21.408 16.4603 21.679 16.4074C21.9501 16.3545 22.1269 16.092 22.074 15.8209L21.0925 16.0124ZM19.5552 10.0031C19.2807 9.97257 19.0335 10.1703 19.003 10.4448C18.9725 10.7192 19.1703 10.9665 19.4447 10.9969L19.5552 10.0031ZM22.8333 12.1667L23.1866 11.8129L22.8333 12.1667ZM24.0031 15.5558C24.0339 15.8302 24.2814 16.0277 24.5558 15.9969C24.8302 15.966 25.0277 15.7186 24.9968 15.4442L24.0031 15.5558ZM23.9995 21.7306V23.9887H24.9995V21.7306H23.9995ZM11.0068 11.0001H13.2694V10.0001H11.0068V11.0001ZM13.2743 11C13.5193 10.9976 13.7566 11.0842 13.9421 11.2434L14.5934 10.4846C14.2239 10.1674 13.7515 9.99531 13.2645 10.0001L13.2743 11ZM13.5741 16.7016C14.6923 18.6643 16.3206 20.2893 18.287 21.4052L18.7805 20.5355C16.9705 19.5083 15.472 18.0127 14.4429 16.2065L13.5741 16.7016ZM23.7612 21.0436C23.921 21.2318 24.0058 21.4719 23.9997 21.7181L24.9993 21.743C25.0116 21.2509 24.8422 20.7717 24.5236 20.3964L23.7612 21.0436ZM13.9421 11.2434C14.0633 11.3475 14.2066 11.5469 14.3491 11.8448C14.4877 12.1345 14.6091 12.4824 14.7036 12.8459C14.8988 13.5968 14.953 14.3079 14.8801 14.6491L15.858 14.8581C15.9803 14.2854 15.8784 13.3904 15.6714 12.5943C15.5648 12.1842 15.4235 11.7734 15.2512 11.4132C15.0827 11.061 14.8667 10.7192 14.5934 10.4846L13.9421 11.2434ZM20.3417 20.1015C20.6847 20.0285 21.4007 20.083 22.1552 20.2791C22.5205 20.374 22.8699 20.4959 23.1605 20.6352C23.4593 20.7785 23.6583 20.9224 23.7612 21.0436L24.5236 20.3964C24.2892 20.1204 23.9461 19.9029 23.5928 19.7335C23.2313 19.5602 22.8186 19.4182 22.4067 19.3112C21.6066 19.1033 20.7074 19.0013 20.1335 19.1234L20.3417 20.1015ZM18.8869 21.3242C19.0192 21.1922 19.1521 21.0447 19.2742 20.9116C19.4005 20.7739 19.5205 20.6456 19.6437 20.5295C19.8943 20.2935 20.1168 20.1494 20.3417 20.1015L20.1335 19.1234C19.6435 19.2277 19.2585 19.5186 18.9581 19.8015C18.8059 19.9448 18.6645 20.0969 18.5372 20.2358C18.4056 20.3792 18.2927 20.5044 18.1805 20.6164L18.8869 21.3242ZM14.8801 14.6491C14.8322 14.8728 14.6882 15.0946 14.4516 15.3448C14.3353 15.4678 14.2067 15.5876 14.0687 15.7136C13.9353 15.8354 13.7875 15.9681 13.6553 16.1001L14.3617 16.8079C14.4739 16.696 14.5994 16.5833 14.7431 16.452C14.8823 16.3249 15.0346 16.1838 15.1783 16.0319C15.4616 15.7321 15.7533 15.3477 15.858 14.8581L14.8801 14.6491ZM22.8549 24.9941C15.6108 24.9998 10.0002 19.3379 10.0059 12.1414L9.00589 12.1406C8.99978 19.8871 15.0559 26.0002 22.8557 25.9941L22.8549 24.9941ZM23.9995 23.9907C24.0018 24.5604 23.4771 25.0482 22.9002 24.9961L22.8104 25.9921C23.9766 26.0973 25.0042 25.1434 24.9995 23.9867L23.9995 23.9907ZM10.0039 12.0959C9.95214 11.5249 10.4356 11.0006 11.0072 11.0001L11.0063 10.0001C9.85371 10.0012 8.90265 11.0234 9.00792 12.1861L10.0039 12.0959ZM18.9875 13.9074C19.5313 14.0135 20.0415 14.2487 20.3964 14.6036L21.1035 13.8964C20.5733 13.3662 19.8638 13.0595 19.179 12.9259L18.9875 13.9074ZM20.3964 14.6036C20.7513 14.9584 20.9864 15.4686 21.0925 16.0124L22.074 15.8209C21.9404 15.1361 21.6337 14.4267 21.1035 13.8964L20.3964 14.6036ZM19.4447 10.9969C20.5923 11.1244 21.6394 11.681 22.48 12.5204L23.1866 11.8129C22.21 10.8375 20.9602 10.1591 19.5552 10.0031L19.4447 10.9969ZM22.48 12.5204C23.3195 13.3589 23.874 14.4073 24.0031 15.5558L24.9968 15.4442C24.8391 14.0406 24.1642 12.7893 23.1866 11.8129L22.48 12.5204Z" fill="#F04E00"/>
</svg>
