<svg width="35" height="35" viewBox="0 0 35 35" fill="none" xmlns="http://www.w3.org/2000/svg">
<circle cx="17.5" cy="17.5" r="17" fill="white" stroke="#F04E00"/>
<path d="M21 24H25.1111C25.602 24 26 23.6162 26 23.1429V12.8571C26 12.6204 25.9005 12.4062 25.7397 12.2511M25.7397 12.2511C25.5788 12.0959 25.3566 12 25.1111 12H10.8889C10.6434 12 10.4212 12.0959 10.2603 12.2511M25.7397 12.2511L19.2571 18.5021C18.5628 19.1715 17.4372 19.1715 16.7429 18.5021L10.2603 12.2511M10.2603 12.2511C10.0995 12.4062 10 12.6204 10 12.8571V18M18.5 25.5V24.25V24.25C18.5 22.7312 17.2688 21.5 15.75 21.5H10.5M10.5 21.5L12.5 23.5M10.5 21.5L12.5 19.5" stroke="#F04E00" stroke-linecap="round" stroke-linejoin="round"/>
</svg>
