<svg width="18" height="18" viewBox="0 0 18 18" fill="none" xmlns="http://www.w3.org/2000/svg">
<path d="M13.2353 1L13.5888 0.646447C13.3936 0.451184 13.077 0.451184 12.8817 0.646447L13.2353 1ZM17 4.76471L17.3536 5.11826C17.5488 4.923 17.5488 4.60641 17.3536 4.41115L17 4.76471ZM8.52941 13.2353V13.7353C8.66202 13.7353 8.7892 13.6826 8.88297 13.5888L8.52941 13.2353ZM4.76471 13.2353H4.26471C4.26471 13.5114 4.48856 13.7353 4.76471 13.7353V13.2353ZM4.76471 9.47059L4.41115 9.11703C4.31738 9.2108 4.26471 9.33798 4.26471 9.47059H4.76471ZM16.0588 17V17.5C16.1914 17.5 16.3186 17.4473 16.4124 17.3536C16.5061 17.2598 16.5588 17.1326 16.5588 17H16.0588ZM1 17H0.5C0.5 17.2761 0.723858 17.5 1 17.5L1 17ZM1 1.94118L1 1.44118C0.723859 1.44118 0.500001 1.66503 0.500001 1.94118H1ZM6.64706 2.44118C6.9232 2.44118 7.14706 2.21732 7.14706 1.94118C7.14706 1.66503 6.9232 1.44118 6.64706 1.44118L6.64706 2.44118ZM16.5588 11.3529C16.5588 11.0768 16.335 10.8529 16.0588 10.8529C15.7827 10.8529 15.5588 11.0768 15.5588 11.3529H16.5588ZM12.8817 1.35355L16.6464 5.11826L17.3536 4.41115L13.5888 0.646447L12.8817 1.35355ZM8.52941 12.7353H4.76471V13.7353H8.52941V12.7353ZM5.26471 13.2353V9.47059H4.26471V13.2353H5.26471ZM5.11826 9.82414L10.7653 4.17708L10.0582 3.46998L4.41115 9.11703L5.11826 9.82414ZM10.7653 4.17708L13.5888 1.35355L12.8817 0.646447L10.0582 3.46998L10.7653 4.17708ZM16.6464 4.41115L13.8229 7.23468L14.53 7.94179L17.3536 5.11826L16.6464 4.41115ZM13.8229 7.23468L8.17586 12.8817L8.88297 13.5888L14.53 7.94179L13.8229 7.23468ZM14.53 7.23468L10.7653 3.46998L10.0582 4.17708L13.8229 7.94179L14.53 7.23468ZM16.0588 16.5L1 16.5L1 17.5L16.0588 17.5V16.5ZM1.5 17L1.5 1.94118L0.500001 1.94118L0.5 17H1.5ZM1 2.44118L6.64706 2.44118L6.64706 1.44118L1 1.44118L1 2.44118ZM15.5588 11.3529V17H16.5588V11.3529H15.5588Z" fill="black"/>
</svg>
