<svg width="15" height="21" viewBox="0 0 15 21" fill="none" xmlns="http://www.w3.org/2000/svg">
<path d="M7.5 16.7561L7.14028 17.1034C7.33143 17.3014 7.64666 17.3077 7.84556 17.1175L7.5 16.7561ZM2.39286 19.5C2.11671 19.5 1.89286 19.7239 1.89286 20C1.89286 20.2761 2.11671 20.5 2.39286 20.5V19.5ZM12.6071 20.5C12.8833 20.5 13.1071 20.2761 13.1071 20C13.1071 19.7239 12.8833 19.5 12.6071 19.5V20.5ZM5.64286 10.6147L5.64284 11.1147H5.64286V10.6147ZM9.35714 10.6147V11.1147H9.35716L9.35714 10.6147ZM10.7143 13.0488C10.7143 13.3249 10.9381 13.5488 11.2143 13.5488C11.4904 13.5488 11.7143 13.3249 11.7143 13.0488H10.7143ZM3.28571 13.0488C3.28571 13.3249 3.50957 13.5488 3.78571 13.5488C4.06186 13.5488 4.28571 13.3249 4.28571 13.0488H3.28571ZM13.5 7.46404C13.5 9.07797 12.6996 10.5821 11.4731 12.0703C10.2428 13.5633 8.65551 14.9593 7.15444 16.3947L7.84556 17.1175C9.30183 15.7249 10.9645 14.2599 12.2449 12.7063C13.5291 11.148 14.5 9.4201 14.5 7.46404H13.5ZM7.85972 16.4088C6.45005 14.9486 4.88211 13.5773 3.60853 12.0661C2.34827 10.5707 1.5 9.06945 1.5 7.46404H0.5C0.5 9.42862 1.53665 11.1594 2.84386 12.7105C4.13773 14.2458 5.81979 15.7356 7.14028 17.1034L7.85972 16.4088ZM1.5 7.46404C1.5 4.1728 4.18367 1.5 7.5 1.5V0.5C3.63663 0.5 0.5 3.6153 0.5 7.46404H1.5ZM7.5 1.5C10.8163 1.5 13.5 4.1728 13.5 7.46404H14.5C14.5 3.6153 11.3634 0.5 7.5 0.5V1.5ZM2.39286 20.5H12.6071V19.5H2.39286V20.5ZM8.85714 6.67645C8.85714 7.51582 8.22235 8.14559 7.5 8.14559V9.14559C8.82899 9.14559 9.85714 8.01213 9.85714 6.67645H8.85714ZM7.5 8.14559C6.77765 8.14559 6.14286 7.51582 6.14286 6.67645H5.14286C5.14286 8.01213 6.17101 9.14559 7.5 9.14559V8.14559ZM6.14286 6.67645C6.14286 5.83708 6.77765 5.20732 7.5 5.20732V4.20732C6.17101 4.20732 5.14286 5.34077 5.14286 6.67645H6.14286ZM7.5 5.20732C8.22235 5.20732 8.85714 5.83708 8.85714 6.67645H9.85714C9.85714 5.34077 8.82899 4.20732 7.5 4.20732V5.20732ZM5.64286 11.1147H9.35714V10.1147H5.64286V11.1147ZM9.35716 11.1147C9.70078 11.1147 10.0296 11.3207 10.2964 11.7138C10.5633 12.1071 10.7143 12.6179 10.7143 13.0488H11.7143C11.7143 12.4165 11.5026 11.7103 11.1238 11.1523C10.745 10.5941 10.1453 10.1147 9.35713 10.1147L9.35716 11.1147ZM4.28571 13.0488C4.28571 12.6179 4.43668 12.1071 4.70357 11.7138C4.97037 11.3207 5.29922 11.1147 5.64284 11.1147L5.64287 10.1147C4.8547 10.1147 4.25498 10.5941 3.87615 11.1523C3.49743 11.7103 3.28571 12.4165 3.28571 13.0488H4.28571Z" fill="black"/>
</svg>
