<svg width="35" height="35" viewBox="0 0 35 35" fill="none" xmlns="http://www.w3.org/2000/svg">
<circle cx="17.5" cy="17.5" r="17" fill="white" stroke="#F04E00"/>
<path d="M17.5 23.7561C20.4573 20.9281 24 18.034 24 14.464C24 10.894 21.0899 8 17.5 8C13.9101 8 11 10.894 11 14.464C11 18.034 14.7698 20.9281 17.5 23.7561Z" fill="white"/>
<path d="M17.5 15.6456C18.5257 15.6456 19.3571 14.764 19.3571 13.6765C19.3571 12.5889 18.5257 11.7073 17.5 11.7073C16.4743 11.7073 15.6429 12.5889 15.6429 13.6765C15.6429 14.764 16.4743 15.6456 17.5 15.6456Z" fill="white"/>
<path d="M17.5 23.7561L17.1403 24.1034C17.3314 24.3014 17.6467 24.3077 17.8456 24.1175L17.5 23.7561ZM12.3929 26.5C12.1167 26.5 11.8929 26.7239 11.8929 27C11.8929 27.2761 12.1167 27.5 12.3929 27.5V26.5ZM22.6071 27.5C22.8833 27.5 23.1071 27.2761 23.1071 27C23.1071 26.7239 22.8833 26.5 22.6071 26.5V27.5ZM15.6429 17.6147L15.6428 18.1147H15.6429V17.6147ZM19.3571 17.6147V18.1147H19.3572L19.3571 17.6147ZM20.7143 20.0488C20.7143 20.3249 20.9381 20.5488 21.2143 20.5488C21.4904 20.5488 21.7143 20.3249 21.7143 20.0488H20.7143ZM13.2857 20.0488C13.2857 20.3249 13.5096 20.5488 13.7857 20.5488C14.0619 20.5488 14.2857 20.3249 14.2857 20.0488H13.2857ZM23.5 14.464C23.5 16.078 22.6996 17.5821 21.4731 19.0703C20.2428 20.5633 18.6555 21.9593 17.1544 23.3947L17.8456 24.1175C19.3018 22.7249 20.9645 21.2599 22.2449 19.7063C23.5291 18.148 24.5 16.4201 24.5 14.464H23.5ZM17.8597 23.4088C16.45 21.9486 14.8821 20.5773 13.6085 19.0661C12.3483 17.5707 11.5 16.0694 11.5 14.464H10.5C10.5 16.4286 11.5366 18.1594 12.8439 19.7105C14.1377 21.2458 15.8198 22.7356 17.1403 24.1034L17.8597 23.4088ZM11.5 14.464C11.5 11.1728 14.1837 8.5 17.5 8.5V7.5C13.6366 7.5 10.5 10.6153 10.5 14.464H11.5ZM17.5 8.5C20.8163 8.5 23.5 11.1728 23.5 14.464H24.5C24.5 10.6153 21.3634 7.5 17.5 7.5V8.5ZM12.3929 27.5H22.6071V26.5H12.3929V27.5ZM18.8571 13.6765C18.8571 14.5158 18.2223 15.1456 17.5 15.1456V16.1456C18.829 16.1456 19.8571 15.0121 19.8571 13.6765H18.8571ZM17.5 15.1456C16.7777 15.1456 16.1429 14.5158 16.1429 13.6765H15.1429C15.1429 15.0121 16.171 16.1456 17.5 16.1456V15.1456ZM16.1429 13.6765C16.1429 12.8371 16.7777 12.2073 17.5 12.2073V11.2073C16.171 11.2073 15.1429 12.3408 15.1429 13.6765H16.1429ZM17.5 12.2073C18.2223 12.2073 18.8571 12.8371 18.8571 13.6765H19.8571C19.8571 12.3408 18.829 11.2073 17.5 11.2073V12.2073ZM15.6429 18.1147H19.3571V17.1147H15.6429V18.1147ZM19.3572 18.1147C19.7008 18.1147 20.0296 18.3207 20.2964 18.7138C20.5633 19.1071 20.7143 19.6179 20.7143 20.0488H21.7143C21.7143 19.4165 21.5026 18.7103 21.1238 18.1523C20.745 17.5941 20.1453 17.1147 19.3571 17.1147L19.3572 18.1147ZM14.2857 20.0488C14.2857 19.6179 14.4367 19.1071 14.7036 18.7138C14.9704 18.3207 15.2992 18.1147 15.6428 18.1147L15.6429 17.1147C14.8547 17.1147 14.255 17.5941 13.8762 18.1523C13.4974 18.7103 13.2857 19.4165 13.2857 20.0488H14.2857Z" fill="#F04E00"/>
</svg>
