<svg width="35" height="35" viewBox="0 0 35 35" fill="none" xmlns="http://www.w3.org/2000/svg">
<circle cx="17.5" cy="17.5" r="17" fill="#CFEDFF" stroke="#CFEDFF"/>
<path d="M17.5 24.01C17.5 24.2861 17.7239 24.51 18 24.51C18.2761 24.51 18.5 24.2861 18.5 24.01H17.5ZM18.5 24C18.5 23.7239 18.2761 23.5 18 23.5C17.7239 23.5 17.5 23.7239 17.5 24H18.5ZM15.5 11C15.2239 11 15 11.2239 15 11.5C15 11.7761 15.2239 12 15.5 12V11ZM20.5 12C20.7761 12 21 11.7761 21 11.5C21 11.2239 20.7761 11 20.5 11V12ZM14 9.5H22V8.5H14V9.5ZM23.5 11V25H24.5V11H23.5ZM22 26.5H14V27.5H22V26.5ZM12.5 25V11H11.5V25H12.5ZM14 26.5C13.1716 26.5 12.5 25.8284 12.5 25H11.5C11.5 26.3807 12.6193 27.5 14 27.5V26.5ZM23.5 25C23.5 25.8284 22.8284 26.5 22 26.5V27.5C23.3807 27.5 24.5 26.3807 24.5 25H23.5ZM22 9.5C22.8284 9.5 23.5 10.1716 23.5 11H24.5C24.5 9.61929 23.3807 8.5 22 8.5V9.5ZM14 8.5C12.6193 8.5 11.5 9.61929 11.5 11H12.5C12.5 10.1716 13.1716 9.5 14 9.5V8.5ZM18.5 24.01V24H17.5V24.01H18.5ZM15.5 12L20.5 12V11L15.5 11V12Z" fill="black"/>
</svg>
