<svg width="17" height="17" viewBox="0 0 17 17" fill="none" xmlns="http://www.w3.org/2000/svg">
<path d="M16.9995 15.2872V12.728C17.0099 12.3096 16.8658 11.902 16.5948 11.5827C15.8303 10.6823 13.2085 10.1063 12.1693 10.3275C11.5323 10.4631 11.0458 10.9949 10.5975 11.4849C10.4757 11.6181 10.3567 11.7482 10.2383 11.8664L16.9995 15.2872ZM16.9995 15.2872C17.0035 16.2655 16.1238 17.0824 15.1361 16.9933L16.9995 15.2872ZM16.4995 15.2872L16.4995 15.2892C16.5023 15.974 15.874 16.5579 15.181 16.4954L15.1584 16.4933L15.1357 16.4933C6.8886 16.4998 0.500217 10.0529 0.506672 1.86018L0.50669 1.83739L0.504635 1.8147C0.442471 1.12816 1.02141 0.500867 1.7079 0.500083H4.27197V0.500107L4.27688 0.500059C4.57066 0.497173 4.85533 0.60101 5.07783 0.791984C5.22531 0.918565 5.39259 1.1541 5.55582 1.49529C5.71517 1.82837 5.85403 2.22688 5.96193 2.64191C6.18395 3.49591 6.24852 4.31416 6.1626 4.71622C6.10463 4.98751 5.9315 5.24976 5.66029 5.53661C5.52665 5.67796 5.37928 5.8151 5.22283 5.958C5.20102 5.97792 5.17891 5.99806 5.1566 6.01838C5.02365 6.1395 4.88365 6.26704 4.75644 6.394L4.48621 6.6637L4.67521 6.99542C5.93662 9.20942 7.77333 11.0424 9.99148 12.3012L10.3223 12.4889L10.5915 12.2203C10.7187 12.0933 10.8465 11.9536 10.9678 11.8209C10.9882 11.7986 11.0084 11.7766 11.0283 11.7548C11.1715 11.5987 11.3089 11.4516 11.4506 11.3182C11.7379 11.0476 12.0009 10.8745 12.2734 10.8165C12.6776 10.7305 13.5012 10.7954 14.3593 11.0184C14.7765 11.1268 15.1767 11.2663 15.5108 11.4265C15.8531 11.5906 16.0882 11.7586 16.2136 11.9063C16.4053 12.1321 16.507 12.4201 16.4996 12.7155L16.4995 12.7155V12.728L16.4995 15.2872Z" stroke="black"/>
</svg>
