<svg width="24" height="16" viewBox="0 0 24 16" fill="none" xmlns="http://www.w3.org/2000/svg">
<path d="M14 10H10C7.79086 10 6 11.7909 6 14V15H18V14C18 11.7909 16.2091 10 14 10Z" fill="#E1F3FD"/>
<path d="M12 7C13.6569 7 15 5.65685 15 4C15 2.34315 13.6569 1 12 1C10.3431 1 9 2.34315 9 4C9 5.65685 10.3431 7 12 7Z" fill="#E1F3FD"/>
<path d="M1 15H0.5C0.5 15.2761 0.723858 15.5 1 15.5V15ZM3 15.5C3.27614 15.5 3.5 15.2761 3.5 15C3.5 14.7238 3.27614 14.5 3 14.5V15.5ZM4.12463 10.6102C4.39206 10.5414 4.55305 10.2688 4.48422 10.0014C4.41539 9.73395 4.1428 9.57296 3.87537 9.64179L4.12463 10.6102ZM5.83338 7.30072C6.09374 7.39275 6.3794 7.25628 6.47142 6.99593C6.56344 6.73557 6.42698 6.44991 6.16662 6.35788L5.83338 7.30072ZM6.16662 1.64214C6.42698 1.55011 6.56344 1.26445 6.47142 1.00409C6.3794 0.743734 6.09374 0.607272 5.83338 0.699295L6.16662 1.64214ZM23 15V15.5C23.2761 15.5 23.5 15.2761 23.5 15H23ZM21 14.5C20.7239 14.5 20.5 14.7238 20.5 15C20.5 15.2761 20.7239 15.5 21 15.5V14.5ZM20.1246 9.64179C19.8572 9.57296 19.5846 9.73395 19.5158 10.0014C19.447 10.2688 19.6079 10.5414 19.8754 10.6102L20.1246 9.64179ZM18.1666 0.699295C17.9063 0.607272 17.6206 0.743734 17.5286 1.00409C17.4366 1.26445 17.573 1.55011 17.8334 1.64214L18.1666 0.699295ZM17.8334 6.35788C17.573 6.44991 17.4366 6.73557 17.5286 6.99593C17.6206 7.25628 17.9063 7.39275 18.1666 7.30072L17.8334 6.35788ZM18 15V15.5C18.2761 15.5 18.5 15.2761 18.5 15H18ZM6 15H5.5C5.5 15.2761 5.72386 15.5 6 15.5V15ZM0.5 14V15H1.5V14H0.5ZM1 15.5H3V14.5H1V15.5ZM1.5 14C1.5 12.3698 2.61495 10.9988 4.12463 10.6102L3.87537 9.64179C1.9346 10.1413 0.5 11.9025 0.5 14H1.5ZM3.5 4.00001C3.5 5.52471 4.47466 6.82049 5.83338 7.30072L6.16662 6.35788C5.19495 6.01445 4.5 5.08774 4.5 4.00001H3.5ZM5.83338 0.699295C4.47466 1.17953 3.5 2.47531 3.5 4.00001H4.5C4.5 2.91227 5.19495 1.98557 6.16662 1.64214L5.83338 0.699295ZM22.5 14V15H23.5V14H22.5ZM23 14.5H21V15.5H23V14.5ZM23.5 14C23.5 11.9025 22.0654 10.1413 20.1246 9.64179L19.8754 10.6102C21.3851 10.9988 22.5 12.3698 22.5 14H23.5ZM17.8334 1.64214C18.805 1.98557 19.5 2.91227 19.5 4.00001H20.5C20.5 2.47531 19.5253 1.17953 18.1666 0.699295L17.8334 1.64214ZM19.5 4.00001C19.5 5.08774 18.805 6.01445 17.8334 6.35788L18.1666 7.30072C19.5253 6.82049 20.5 5.52471 20.5 4.00001H19.5ZM10 10.5H14V9.5H10V10.5ZM17.5 14V15H18.5V14H17.5ZM6.5 15V14H5.5V15H6.5ZM14 10.5C15.933 10.5 17.5 12.067 17.5 14H18.5C18.5 11.5147 16.4853 9.5 14 9.5V10.5ZM10 9.5C7.51472 9.5 5.5 11.5147 5.5 14H6.5C6.5 12.067 8.067 10.5 10 10.5V9.5ZM18 14.5H6V15.5H18V14.5ZM14.5 4C14.5 5.38071 13.3807 6.5 12 6.5V7.5C13.933 7.5 15.5 5.933 15.5 4H14.5ZM12 6.5C10.6193 6.5 9.5 5.38071 9.5 4H8.5C8.5 5.933 10.067 7.5 12 7.5V6.5ZM9.5 4C9.5 2.61929 10.6193 1.5 12 1.5V0.5C10.067 0.5 8.5 2.067 8.5 4H9.5ZM12 1.5C13.3807 1.5 14.5 2.61929 14.5 4H15.5C15.5 2.067 13.933 0.5 12 0.5V1.5Z" fill="black"/>
</svg>
