<svg width="16" height="22" viewBox="0 0 16 22" fill="none" xmlns="http://www.w3.org/2000/svg">
<path d="M8 18L7.63995 18.3469C7.83117 18.5454 8.14691 18.5517 8.3459 18.361L8 18ZM2.5 21C2.22386 21 2 21.2239 2 21.5C2 21.7761 2.22386 22 2.5 22V21ZM13.5 22C13.7761 22 14 21.7761 14 21.5C14 21.2239 13.7761 21 13.5 21V22ZM6 11.3738L5.99999 11.8738H6V11.3738ZM10 11.3738V11.8738H10L10 11.3738ZM11.5 14C11.5 14.2761 11.7239 14.5 12 14.5C12.2761 14.5 12.5 14.2761 12.5 14H11.5ZM3.5 14C3.5 14.2761 3.72386 14.5 4 14.5C4.27614 14.5 4.5 14.2761 4.5 14H3.5ZM14.5 7.97436C14.5 9.72952 13.6311 11.3614 12.3082 12.9698C10.9812 14.5829 9.26889 16.0919 7.6541 17.639L8.3459 18.361C9.91594 16.8568 11.7036 15.2789 13.0805 13.605C14.4613 11.9263 15.5 10.071 15.5 7.97436H14.5ZM8.36005 17.6531C6.84542 16.0812 5.15242 14.597 3.78007 12.9655C2.4211 11.35 1.5 9.72101 1.5 7.97436H0.5C0.5 10.0795 1.60882 11.9378 3.0148 13.6092C4.40741 15.2648 6.21442 16.8675 7.63995 18.3469L8.36005 17.6531ZM1.5 7.97436C1.5 4.4004 4.40842 1.5 8 1.5V0.5C3.8596 0.5 0.5 3.84466 0.5 7.97436H1.5ZM8 1.5C11.5916 1.5 14.5 4.4004 14.5 7.97436H15.5C15.5 3.84466 12.1404 0.5 8 0.5V1.5ZM2.5 22H13.5V21H2.5V22ZM9.5 7.12459C9.5 8.05073 8.80039 8.74918 8 8.74918V9.74918C9.40875 9.74918 10.5 8.54522 10.5 7.12459H9.5ZM8 8.74918C7.19961 8.74918 6.5 8.05073 6.5 7.12459H5.5C5.5 8.54522 6.59125 9.74918 8 9.74918V8.74918ZM6.5 7.12459C6.5 6.19846 7.19961 5.5 8 5.5V4.5C6.59125 4.5 5.5 5.70397 5.5 7.12459H6.5ZM8 5.5C8.80039 5.5 9.5 6.19846 9.5 7.12459H10.5C10.5 5.70397 9.40875 4.5 8 4.5V5.5ZM6 11.8738H10V10.8738H6V11.8738ZM10 11.8738C10.3867 11.8738 10.7513 12.1064 11.0431 12.5371C11.335 12.9679 11.5 13.5269 11.5 14H12.5C12.5 13.326 12.2745 12.5718 11.871 11.9763C11.4676 11.3807 10.8321 10.8738 9.99999 10.8738L10 11.8738ZM4.5 14C4.5 13.5269 4.66504 12.9679 4.95688 12.5371C5.24871 12.1064 5.61327 11.8738 5.99999 11.8738L6.00001 10.8738C5.16787 10.8738 4.53244 11.3807 4.12897 11.9763C3.72554 12.5718 3.5 13.326 3.5 14H4.5Z" fill="black"/>
</svg>
