<svg width="69" height="74" viewBox="0 0 69 74" fill="none" xmlns="http://www.w3.org/2000/svg">
<path d="M1 17C0.723858 17 0.5 17.2239 0.5 17.5C0.5 17.7761 0.723858 18 1 18V17ZM63 18C63.2761 18 63.5 17.7761 63.5 17.5C63.5 17.2239 63.2761 17 63 17V18ZM22 12C21.7239 12 21.5 12.2239 21.5 12.5C21.5 12.7761 21.7239 13 22 13V12ZM42 13C42.2761 13 42.5 12.7761 42.5 12.5C42.5 12.2239 42.2761 12 42 12V13ZM63.6869 54.3536C63.8821 54.1583 63.8821 53.8417 63.6869 53.6464C63.4916 53.4512 63.175 53.4512 62.9798 53.6464L63.6869 54.3536ZM55.1666 62.1667L54.8131 62.5202C55.0084 62.7155 55.3249 62.7155 55.5202 62.5202L55.1666 62.1667ZM52.0201 58.3131C51.8249 58.1179 51.5083 58.1179 51.313 58.3131C51.1178 58.5084 51.1178 58.825 51.313 59.0202L52.0201 58.3131ZM63 48.554L62.7377 48.9797L63 48.554ZM63 66.446L62.7377 66.0203L63 66.446ZM4 5.5H60V4.5H4V5.5ZM60 72.5H4V73.5H60V72.5ZM1.5 70V8H0.5V70H1.5ZM4 72.5C2.61929 72.5 1.5 71.3807 1.5 70H0.5C0.5 71.933 2.067 73.5 4 73.5V72.5ZM62.5 70C62.5 71.3807 61.3807 72.5 60 72.5V73.5C61.933 73.5 63.5 71.933 63.5 70H62.5ZM60 5.5C61.3807 5.5 62.5 6.61929 62.5 8H63.5C63.5 6.067 61.933 4.5 60 4.5V5.5ZM4 4.5C2.067 4.5 0.5 6.067 0.5 8H1.5C1.5 6.61929 2.61929 5.5 4 5.5V4.5ZM11.5 1.5V8.5H12.5V1.5H11.5ZM11.5 8.5V1.5H10.5V8.5H11.5ZM11.5 8.5H10.5C10.5 9.05229 10.9477 9.5 11.5 9.5V8.5ZM11.5 8.5V9.5C12.0523 9.5 12.5 9.05229 12.5 8.5H11.5ZM11.5 1.5H12.5C12.5 0.947715 12.0523 0.5 11.5 0.5V1.5ZM11.5 0.5C10.9477 0.5 10.5 0.947715 10.5 1.5H11.5V0.5ZM53.5 1.5V8.5H54.5V1.5H53.5ZM53.5 8.5V1.5H52.5V8.5H53.5ZM53.5 8.5H52.5C52.5 9.05229 52.9477 9.5 53.5 9.5V8.5ZM53.5 8.5V9.5C54.0523 9.5 54.5 9.05229 54.5 8.5H53.5ZM53.5 1.5H54.5C54.5 0.947715 54.0523 0.5 53.5 0.5V1.5ZM53.5 0.5C52.9477 0.5 52.5 0.947715 52.5 1.5H53.5V0.5ZM1 18H63V17H1V18ZM22 13H42V12H22V13ZM13.5 28.5C13.5 29.0523 13.0523 29.5 12.5 29.5V30.5C13.6046 30.5 14.5 29.6046 14.5 28.5H13.5ZM12.5 29.5C11.9477 29.5 11.5 29.0523 11.5 28.5H10.5C10.5 29.6046 11.3954 30.5 12.5 30.5V29.5ZM11.5 28.5C11.5 27.9477 11.9477 27.5 12.5 27.5V26.5C11.3954 26.5 10.5 27.3954 10.5 28.5H11.5ZM12.5 27.5C13.0523 27.5 13.5 27.9477 13.5 28.5H14.5C14.5 27.3954 13.6046 26.5 12.5 26.5V27.5ZM26.5 28.5C26.5 29.0523 26.0523 29.5 25.5 29.5V30.5C26.6046 30.5 27.5 29.6046 27.5 28.5H26.5ZM25.5 29.5C24.9477 29.5 24.5 29.0523 24.5 28.5H23.5C23.5 29.6046 24.3954 30.5 25.5 30.5V29.5ZM24.5 28.5C24.5 27.9477 24.9477 27.5 25.5 27.5V26.5C24.3954 26.5 23.5 27.3954 23.5 28.5H24.5ZM25.5 27.5C26.0523 27.5 26.5 27.9477 26.5 28.5H27.5C27.5 27.3954 26.6046 26.5 25.5 26.5V27.5ZM39.5 28.5C39.5 29.0523 39.0523 29.5 38.5 29.5V30.5C39.6046 30.5 40.5 29.6046 40.5 28.5H39.5ZM38.5 29.5C37.9477 29.5 37.5 29.0523 37.5 28.5H36.5C36.5 29.6046 37.3954 30.5 38.5 30.5V29.5ZM37.5 28.5C37.5 27.9477 37.9477 27.5 38.5 27.5V26.5C37.3954 26.5 36.5 27.3954 36.5 28.5H37.5ZM38.5 27.5C39.0523 27.5 39.5 27.9477 39.5 28.5H40.5C40.5 27.3954 39.6046 26.5 38.5 26.5V27.5ZM52.5 28.5C52.5 29.0523 52.0523 29.5 51.5 29.5V30.5C52.6046 30.5 53.5 29.6046 53.5 28.5H52.5ZM51.5 29.5C50.9477 29.5 50.5 29.0523 50.5 28.5H49.5C49.5 29.6046 50.3954 30.5 51.5 30.5V29.5ZM50.5 28.5C50.5 27.9477 50.9477 27.5 51.5 27.5V26.5C50.3954 26.5 49.5 27.3954 49.5 28.5H50.5ZM51.5 27.5C52.0523 27.5 52.5 27.9477 52.5 28.5H53.5C53.5 27.3954 52.6046 26.5 51.5 26.5V27.5ZM13.5 40.5C13.5 41.0523 13.0523 41.5 12.5 41.5V42.5C13.6046 42.5 14.5 41.6046 14.5 40.5H13.5ZM12.5 41.5C11.9477 41.5 11.5 41.0523 11.5 40.5H10.5C10.5 41.6046 11.3954 42.5 12.5 42.5V41.5ZM11.5 40.5C11.5 39.9477 11.9477 39.5 12.5 39.5V38.5C11.3954 38.5 10.5 39.3954 10.5 40.5H11.5ZM12.5 39.5C13.0523 39.5 13.5 39.9477 13.5 40.5H14.5C14.5 39.3954 13.6046 38.5 12.5 38.5V39.5ZM26.5 40.5C26.5 41.0523 26.0523 41.5 25.5 41.5V42.5C26.6046 42.5 27.5 41.6046 27.5 40.5H26.5ZM25.5 41.5C24.9477 41.5 24.5 41.0523 24.5 40.5H23.5C23.5 41.6046 24.3954 42.5 25.5 42.5V41.5ZM24.5 40.5C24.5 39.9477 24.9477 39.5 25.5 39.5V38.5C24.3954 38.5 23.5 39.3954 23.5 40.5H24.5ZM25.5 39.5C26.0523 39.5 26.5 39.9477 26.5 40.5H27.5C27.5 39.3954 26.6046 38.5 25.5 38.5V39.5ZM39.5 40.5C39.5 41.0523 39.0523 41.5 38.5 41.5V42.5C39.6046 42.5 40.5 41.6046 40.5 40.5H39.5ZM38.5 41.5C37.9477 41.5 37.5 41.0523 37.5 40.5H36.5C36.5 41.6046 37.3954 42.5 38.5 42.5V41.5ZM37.5 40.5C37.5 39.9477 37.9477 39.5 38.5 39.5V38.5C37.3954 38.5 36.5 39.3954 36.5 40.5H37.5ZM38.5 39.5C39.0523 39.5 39.5 39.9477 39.5 40.5H40.5C40.5 39.3954 39.6046 38.5 38.5 38.5V39.5ZM52.5 40.5C52.5 41.0523 52.0523 41.5 51.5 41.5V42.5C52.6046 42.5 53.5 41.6046 53.5 40.5H52.5ZM51.5 41.5C50.9477 41.5 50.5 41.0523 50.5 40.5H49.5C49.5 41.6046 50.3954 42.5 51.5 42.5V41.5ZM50.5 40.5C50.5 39.9477 50.9477 39.5 51.5 39.5V38.5C50.3954 38.5 49.5 39.3954 49.5 40.5H50.5ZM51.5 39.5C52.0523 39.5 52.5 39.9477 52.5 40.5H53.5C53.5 39.3954 52.6046 38.5 51.5 38.5V39.5ZM13.5 52.5C13.5 53.0523 13.0523 53.5 12.5 53.5V54.5C13.6046 54.5 14.5 53.6046 14.5 52.5H13.5ZM12.5 53.5C11.9477 53.5 11.5 53.0523 11.5 52.5H10.5C10.5 53.6046 11.3954 54.5 12.5 54.5V53.5ZM11.5 52.5C11.5 51.9477 11.9477 51.5 12.5 51.5V50.5C11.3954 50.5 10.5 51.3954 10.5 52.5H11.5ZM12.5 51.5C13.0523 51.5 13.5 51.9477 13.5 52.5H14.5C14.5 51.3954 13.6046 50.5 12.5 50.5V51.5ZM26.5 52.5C26.5 53.0523 26.0523 53.5 25.5 53.5V54.5C26.6046 54.5 27.5 53.6046 27.5 52.5H26.5ZM25.5 53.5C24.9477 53.5 24.5 53.0523 24.5 52.5H23.5C23.5 53.6046 24.3954 54.5 25.5 54.5V53.5ZM24.5 52.5C24.5 51.9477 24.9477 51.5 25.5 51.5V50.5C24.3954 50.5 23.5 51.3954 23.5 52.5H24.5ZM25.5 51.5C26.0523 51.5 26.5 51.9477 26.5 52.5H27.5C27.5 51.3954 26.6046 50.5 25.5 50.5V51.5ZM39.5 52.5C39.5 53.0523 39.0523 53.5 38.5 53.5V54.5C39.6046 54.5 40.5 53.6046 40.5 52.5H39.5ZM38.5 53.5C37.9477 53.5 37.5 53.0523 37.5 52.5H36.5C36.5 53.6046 37.3954 54.5 38.5 54.5V53.5ZM37.5 52.5C37.5 51.9477 37.9477 51.5 38.5 51.5V50.5C37.3954 50.5 36.5 51.3954 36.5 52.5H37.5ZM38.5 51.5C39.0523 51.5 39.5 51.9477 39.5 52.5H40.5C40.5 51.3954 39.6046 50.5 38.5 50.5V51.5ZM62.9798 53.6464L54.8131 61.8131L55.5202 62.5202L63.6869 54.3536L62.9798 53.6464ZM51.313 59.0202L54.8131 62.5202L55.5202 61.8131L52.0201 58.3131L51.313 59.0202ZM57.5 67.5C51.9772 67.5 47.5 63.0228 47.5 57.5H46.5C46.5 63.5751 51.4249 68.5 57.5 68.5V67.5ZM47.5 57.5C47.5 51.9772 51.9772 47.5 57.5 47.5V46.5C51.4249 46.5 46.5 51.4249 46.5 57.5H47.5ZM57.5 47.5C59.4214 47.5 61.2148 48.0414 62.7377 48.9797L63.2623 48.1283C61.5862 47.0956 59.6119 46.5 57.5 46.5V47.5ZM62.7377 48.9797C65.5962 50.7408 67.5 53.8983 67.5 57.5H68.5C68.5 53.537 66.4039 50.0639 63.2623 48.1283L62.7377 48.9797ZM62.5 8V48.554H63.5V8H62.5ZM67.5 57.5C67.5 61.1017 65.5962 64.2591 62.7377 66.0203L63.2623 66.8717C66.4039 64.9361 68.5 61.463 68.5 57.5H67.5ZM62.7377 66.0203C61.2148 66.9586 59.4214 67.5 57.5 67.5V68.5C59.6119 68.5 61.5862 67.9044 63.2623 66.8717L62.7377 66.0203ZM63.5 70V66.446H62.5V70H63.5Z" fill="black"/>
</svg>
