<svg width="20" height="20" viewBox="0 0 20 20" fill="none" xmlns="http://www.w3.org/2000/svg">
<path d="M17.2 12.8335C18.3774 11.3317 19 10 19 10C19 10 15.7273 3 10 3C9.6929 3 9.39286 3.02013 9.1 3.05822C8.79201 3.09828 8.49196 3.15822 8.2 3.23552M10 7C10.3156 7 10.6185 7.06015 10.9 7.17071C11.6672 7.47199 12.2752 8.14759 12.5464 9C12.6459 9.31278 12.7 9.64936 12.7 10M1.9 1L18.1 19M9.99999 13C9.68442 13 9.3815 12.9398 9.09999 12.8293C8.33282 12.528 7.72479 11.8524 7.45363 11C7.40247 10.8392 7.36331 10.6721 7.33733 10.5M2.93231 7C2.65489 7.34451 2.40611 7.68241 2.18677 8C1.40758 9.12824 1 10 1 10C1 10 4.27273 17 10 17C10.3071 17 10.6071 16.9799 10.9 16.9418" stroke="black" stroke-linecap="round" stroke-linejoin="round"/>
</svg>
