<svg width="20" height="21" viewBox="0 0 20 21" fill="none" xmlns="http://www.w3.org/2000/svg">
<path d="M19.1972 14.2399C19.3348 13.8492 19.1297 13.4209 18.7391 13.2833C18.3484 13.1456 17.9201 13.3507 17.7824 13.7414L19.1972 14.2399ZM14.9879 18.492L15.4035 19.1164L14.9879 18.492ZM4.18668 17.8704L3.70224 18.443H3.70224L4.18668 17.8704ZM1.78602 7.32177L1.10152 7.01523H1.10152L1.78602 7.32177ZM5.64608 3.12343L5.28324 2.46704L5.64608 3.12343ZM11.2546 2.08779L11.1501 2.83047L11.2546 2.08779ZM19 7V7.75C19.4142 7.75 19.75 7.41421 19.75 7H19ZM19.75 1C19.75 0.585786 19.4142 0.25 19 0.25C18.5858 0.25 18.25 0.585786 18.25 1H19.75ZM13 6.25C12.5858 6.25 12.25 6.58579 12.25 7C12.25 7.41421 12.5858 7.75 13 7.75V6.25ZM17.7824 13.7414C17.188 15.4284 16.0614 16.8766 14.5724 17.8677L15.4035 19.1164C17.1633 17.9451 18.4947 16.2336 19.1972 14.2399L17.7824 13.7414ZM14.5724 17.8677C13.0833 18.8588 11.3124 19.3391 9.52656 19.2364L9.44038 20.7339C11.5509 20.8553 13.6437 20.2877 15.4035 19.1164L14.5724 17.8677ZM9.52656 19.2364C7.74071 19.1336 6.03665 18.4532 4.67112 17.2979L3.70224 18.443C5.31603 19.8084 7.32988 20.6124 9.44038 20.7339L9.52656 19.2364ZM4.67112 17.2979C3.3056 16.1425 2.35259 14.5746 1.95568 12.8306L0.493078 13.1635C0.96216 15.2246 2.08845 17.0775 3.70224 18.443L4.67112 17.2979ZM1.95568 12.8306C1.55877 11.0865 1.73945 9.26075 2.47051 7.6283L1.10152 7.01523C0.237536 8.94449 0.023995 11.1023 0.493078 13.1635L1.95568 12.8306ZM2.47051 7.6283C3.20157 5.99586 4.4434 4.64519 6.00891 3.77983L5.28324 2.46704C3.43313 3.48973 1.96551 5.08596 1.10152 7.01523L2.47051 7.6283ZM6.00891 3.77983C7.57442 2.91446 9.37879 2.58127 11.1501 2.83047L11.3591 1.3451C9.26575 1.0506 7.13336 1.44435 5.28324 2.46704L6.00891 3.77983ZM11.1501 2.83047C14.1277 3.24937 16.0793 5.38673 18.4991 7.5582L19.5009 6.4418C17.2658 4.43611 14.9064 1.84416 11.3591 1.3451L11.1501 2.83047ZM18.25 1V7H19.75V1H18.25ZM19 6.25H13V7.75H19V6.25Z" fill="black"/>
</svg>
