<svg width="14" height="20" viewBox="0 0 14 20" fill="none" xmlns="http://www.w3.org/2000/svg">
<path d="M11 1H3C1.89543 1 1 1.89543 1 3V17C1 18.1046 1.89543 19 3 19H11C12.1046 19 13 18.1046 13 17V3C13 1.89543 12.1046 1 11 1Z" fill="white"/>
<path d="M6.5 16.01C6.5 16.2861 6.72386 16.51 7 16.51C7.27614 16.51 7.5 16.2861 7.5 16.01H6.5ZM7.5 16C7.5 15.7239 7.27614 15.5 7 15.5C6.72386 15.5 6.5 15.7239 6.5 16H7.5ZM4.5 3C4.22386 3 4 3.22386 4 3.5C4 3.77614 4.22386 4 4.5 4V3ZM9.5 4C9.77614 4 10 3.77614 10 3.5C10 3.22386 9.77614 3 9.5 3V4ZM3 1.5H11V0.5H3V1.5ZM12.5 3V17H13.5V3H12.5ZM11 18.5H3V19.5H11V18.5ZM1.5 17V3H0.5V17H1.5ZM3 18.5C2.17157 18.5 1.5 17.8284 1.5 17H0.5C0.5 18.3807 1.61929 19.5 3 19.5V18.5ZM12.5 17C12.5 17.8284 11.8284 18.5 11 18.5V19.5C12.3807 19.5 13.5 18.3807 13.5 17H12.5ZM11 1.5C11.8284 1.5 12.5 2.17157 12.5 3H13.5C13.5 1.61929 12.3807 0.5 11 0.5V1.5ZM3 0.5C1.61929 0.5 0.5 1.61929 0.5 3H1.5C1.5 2.17157 2.17157 1.5 3 1.5V0.5ZM7.5 16.01V16H6.5V16.01H7.5ZM4.5 4L9.5 4V3L4.5 3V4Z" fill="black"/>
</svg>
