<svg width="21" height="14" viewBox="0 0 21 14" fill="none" xmlns="http://www.w3.org/2000/svg">
<path d="M1 1H20V13H1V1Z" fill="white"/>
<path d="M1 1V0.5C0.723858 0.5 0.5 0.723858 0.5 1H1ZM20 1H20.5C20.5 0.723858 20.2761 0.5 20 0.5V1ZM20 13V13.5C20.2761 13.5 20.5 13.2761 20.5 13H20ZM1 13H0.5C0.5 13.2761 0.723858 13.5 1 13.5V13ZM1.75666 1.03182C1.53754 0.863768 1.22367 0.905171 1.05563 1.12429C0.887577 1.34341 0.928981 1.65728 1.1481 1.82533L1.75666 1.03182ZM10.9524 8.71429L10.6481 9.11104C10.8348 9.25425 11.0962 9.24786 11.2757 9.0957L10.9524 8.71429ZM19.8709 1.80998C20.0816 1.63143 20.1076 1.31592 19.929 1.10527C19.7505 0.894621 19.435 0.868604 19.2243 1.04716L19.8709 1.80998ZM1 1.5H20V0.5H1V1.5ZM19.5 1V13H20.5V1H19.5ZM20 12.5H1V13.5H20V12.5ZM1.5 13V1H0.5V13H1.5ZM1.1481 1.82533L10.6481 9.11104L11.2567 8.31753L1.75666 1.03182L1.1481 1.82533ZM11.2757 9.0957L19.8709 1.80998L19.2243 1.04716L10.6291 8.33287L11.2757 9.0957Z" fill="black"/>
</svg>
