<svg width="16" height="16" viewBox="0 0 16 16" fill="none" xmlns="http://www.w3.org/2000/svg">
<path d="M15.4995 11.7306L14.9995 11.7181V11.7306H15.4995ZM15.4995 13.9887H14.9995L14.9995 13.9907L15.4995 13.9887ZM2.00676 0.500073V7.27475e-05L2.00629 7.31945e-05L2.00676 0.500073ZM4.26937 0.500073V1.0001L4.27429 1.00005L4.26937 0.500073ZM5.26776 0.864034L4.94211 1.24345V1.24345L5.26776 0.864034ZM5.0085 6.45403L4.65529 6.10013C4.49574 6.25937 4.46247 6.50569 4.57406 6.70155L5.0085 6.45403ZM9.53373 10.9703L9.28695 11.4052C9.48241 11.5161 9.72786 11.483 9.88693 11.3242L9.53373 10.9703ZM15.1424 10.72L15.5236 10.3964L15.1424 10.72ZM6.36901 4.75357L6.85797 4.85805L6.36901 4.75357ZM11.2376 9.61249L11.3417 10.1015L11.2376 9.61249ZM13.8553 15.4941L13.9002 14.9961C13.8852 14.9948 13.8701 14.9941 13.8549 14.9941L13.8553 15.4941ZM0.505887 2.14099L1.00589 2.14138C1.0059 2.1262 1.00522 2.11102 1.00385 2.0959L0.505887 2.14099ZM10.179 2.92592C9.908 2.87304 9.64542 3.04989 9.59254 3.32092C9.53966 3.59195 9.7165 3.85453 9.98754 3.90741L10.179 2.92592ZM12.0925 6.01241C12.1454 6.28345 12.408 6.46029 12.679 6.40741C12.9501 6.35453 13.1269 6.09195 13.074 5.82092L12.0925 6.01241ZM10.5552 0.00305709C10.2807 -0.0274326 10.0335 0.17034 10.003 0.444794C9.97252 0.719248 10.1703 0.966453 10.4447 0.996943L10.5552 0.00305709ZM13.8333 2.16667L14.1866 1.81289L13.8333 2.16667ZM15.0031 5.55583C15.0339 5.83025 15.2814 6.02771 15.5558 5.99687C15.8302 5.96604 16.0277 5.71858 15.9968 5.44417L15.0031 5.55583ZM14.9995 11.7306V13.9887H15.9995V11.7306H14.9995ZM2.00676 1.00007H4.26937V7.29859e-05H2.00676V1.00007ZM4.27429 1.00005C4.51926 0.997643 4.75661 1.08423 4.94211 1.24345L5.59341 0.484623C5.22386 0.167439 4.75153 -0.00468713 4.26446 9.7096e-05L4.27429 1.00005ZM4.57406 6.70155C5.69231 8.66429 7.32057 10.2893 9.28695 11.4052L9.78051 10.5355C7.97051 9.5083 6.47199 8.01269 5.44293 6.20652L4.57406 6.70155ZM14.7612 11.0436C14.921 11.2318 15.0058 11.4719 14.9997 11.7181L15.9993 11.743C16.0116 11.2509 15.8422 10.7717 15.5236 10.3964L14.7612 11.0436ZM4.94211 1.24345C5.06329 1.34745 5.20662 1.5469 5.34911 1.84476C5.48774 2.13451 5.60908 2.48243 5.70358 2.8459C5.89878 3.59677 5.95295 4.30793 5.88005 4.64908L6.85797 4.85805C6.98033 4.28544 6.87839 3.39045 6.67141 2.59429C6.5648 2.18425 6.42354 1.77344 6.2512 1.41319C6.08273 1.06105 5.86674 0.719221 5.59341 0.484623L4.94211 1.24345ZM11.3417 10.1015C11.6847 10.0285 12.4007 10.083 13.1552 10.2791C13.5205 10.374 13.8699 10.4959 14.1605 10.6352C14.4593 10.7785 14.6583 10.9224 14.7612 11.0436L15.5236 10.3964C15.2892 10.1204 14.9461 9.90287 14.5928 9.73349C14.2313 9.56016 13.8186 9.41825 13.4067 9.31121C12.6066 9.10332 11.7074 9.00129 11.1335 9.12345L11.3417 10.1015ZM9.88693 11.3242C10.0192 11.1922 10.1521 11.0447 10.2742 10.9116C10.4005 10.7739 10.5205 10.6456 10.6437 10.5295C10.8943 10.2935 11.1168 10.1494 11.3417 10.1015L11.1335 9.12345C10.6435 9.22774 10.2585 9.51858 9.95815 9.80148C9.80592 9.94484 9.66453 10.0969 9.53719 10.2358C9.40563 10.3792 9.29273 10.5044 9.18053 10.6164L9.88693 11.3242ZM5.88005 4.64908C5.83224 4.87281 5.68816 5.09464 5.45161 5.34483C5.3353 5.46785 5.20667 5.5876 5.0687 5.71362C4.93533 5.83544 4.78755 5.96814 4.65529 6.10013L5.3617 6.80794C5.4739 6.69595 5.59937 6.58327 5.74311 6.45198C5.88225 6.32489 6.0346 6.18378 6.17825 6.03185C6.46162 5.73215 6.75333 5.34772 6.85797 4.85805L5.88005 4.64908ZM13.8549 14.9941C6.61081 14.9998 1.00022 9.33785 1.00589 2.14138L0.00588745 2.14059C-0.000216544 9.88713 6.05586 16.0002 13.8557 15.9941L13.8549 14.9941ZM14.9995 13.9907C15.0018 14.5604 14.4771 15.0482 13.9002 14.9961L13.8104 15.9921C14.9766 16.0973 16.0042 15.1434 15.9995 13.9867L14.9995 13.9907ZM1.00385 2.0959C0.952145 1.52486 1.43558 1.00061 2.00723 1.00007L2.00629 7.31945e-05C0.853711 0.00115645 -0.0973532 1.02338 0.00792444 2.18608L1.00385 2.0959ZM9.98754 3.90741C10.5313 4.01351 11.0415 4.24866 11.3964 4.60355L12.1035 3.89645C11.5733 3.36621 10.8638 3.05953 10.179 2.92592L9.98754 3.90741ZM11.3964 4.60355C11.7513 4.95845 11.9864 5.46863 12.0925 6.01241L13.074 5.82092C12.9404 5.1361 12.6337 4.42668 12.1035 3.89645L11.3964 4.60355ZM10.4447 0.996943C11.5923 1.12442 12.6394 1.68097 13.48 2.52044L14.1866 1.81289C13.21 0.837482 11.9602 0.159146 10.5552 0.00305709L10.4447 0.996943ZM13.48 2.52044C14.3195 3.35893 14.874 4.40726 15.0031 5.55583L15.9968 5.44417C15.8391 4.04055 15.1642 2.78929 14.1866 1.81289L13.48 2.52044Z" fill="black"/>
</svg>
