<svg width="35" height="35" viewBox="0 0 35 35" fill="none" xmlns="http://www.w3.org/2000/svg">
<circle cx="17.5" cy="17.5" r="17" fill="white" stroke="#F04E00"/>
<path d="M7 24H6.5C6.5 24.2761 6.72386 24.5 7 24.5V24ZM9 24.5C9.27614 24.5 9.5 24.2761 9.5 24C9.5 23.7238 9.27614 23.5 9 23.5V24.5ZM10.1246 19.6102C10.3921 19.5414 10.553 19.2688 10.4842 19.0014C10.4154 18.734 10.1428 18.573 9.87537 18.6418L10.1246 19.6102ZM11.8334 16.3007C12.0937 16.3927 12.3794 16.2563 12.4714 15.9959C12.5634 15.7356 12.427 15.4499 12.1666 15.3579L11.8334 16.3007ZM12.1666 10.6421C12.427 10.5501 12.5634 10.2645 12.4714 10.0041C12.3794 9.74373 12.0937 9.60727 11.8334 9.6993L12.1666 10.6421ZM29 24V24.5C29.2761 24.5 29.5 24.2761 29.5 24H29ZM27 23.5C26.7239 23.5 26.5 23.7238 26.5 24C26.5 24.2761 26.7239 24.5 27 24.5V23.5ZM26.1246 18.6418C25.8572 18.573 25.5846 18.734 25.5158 19.0014C25.447 19.2688 25.6079 19.5414 25.8754 19.6102L26.1246 18.6418ZM24.1666 9.6993C23.9063 9.60727 23.6206 9.74373 23.5286 10.0041C23.4366 10.2645 23.573 10.5501 23.8334 10.6421L24.1666 9.6993ZM23.8334 15.3579C23.573 15.4499 23.4366 15.7356 23.5286 15.9959C23.6206 16.2563 23.9063 16.3927 24.1666 16.3007L23.8334 15.3579ZM24 24V24.5C24.2761 24.5 24.5 24.2761 24.5 24H24ZM12 24H11.5C11.5 24.2761 11.7239 24.5 12 24.5V24ZM6.5 23V24H7.5V23H6.5ZM7 24.5H9V23.5H7V24.5ZM7.5 23C7.5 21.3698 8.61495 19.9988 10.1246 19.6102L9.87537 18.6418C7.9346 19.1413 6.5 20.9025 6.5 23H7.5ZM9.5 13C9.5 14.5247 10.4747 15.8205 11.8334 16.3007L12.1666 15.3579C11.195 15.0144 10.5 14.0877 10.5 13H9.5ZM11.8334 9.6993C10.4747 10.1795 9.5 11.4753 9.5 13H10.5C10.5 11.9123 11.195 10.9856 12.1666 10.6421L11.8334 9.6993ZM28.5 23V24H29.5V23H28.5ZM29 23.5H27V24.5H29V23.5ZM29.5 23C29.5 20.9025 28.0654 19.1413 26.1246 18.6418L25.8754 19.6102C27.3851 19.9988 28.5 21.3698 28.5 23H29.5ZM23.8334 10.6421C24.805 10.9856 25.5 11.9123 25.5 13H26.5C26.5 11.4753 25.5253 10.1795 24.1666 9.6993L23.8334 10.6421ZM25.5 13C25.5 14.0877 24.805 15.0144 23.8334 15.3579L24.1666 16.3007C25.5253 15.8205 26.5 14.5247 26.5 13H25.5ZM16 19.5H20V18.5H16V19.5ZM23.5 23V24H24.5V23H23.5ZM12.5 24V23H11.5V24H12.5ZM20 19.5C21.933 19.5 23.5 21.067 23.5 23H24.5C24.5 20.5147 22.4853 18.5 20 18.5V19.5ZM16 18.5C13.5147 18.5 11.5 20.5147 11.5 23H12.5C12.5 21.067 14.067 19.5 16 19.5V18.5ZM24 23.5H12V24.5H24V23.5ZM20.5 13C20.5 14.3807 19.3807 15.5 18 15.5V16.5C19.933 16.5 21.5 14.933 21.5 13H20.5ZM18 15.5C16.6193 15.5 15.5 14.3807 15.5 13H14.5C14.5 14.933 16.067 16.5 18 16.5V15.5ZM15.5 13C15.5 11.6193 16.6193 10.5 18 10.5V9.5C16.067 9.5 14.5 11.067 14.5 13H15.5ZM18 10.5C19.3807 10.5 20.5 11.6193 20.5 13H21.5C21.5 11.067 19.933 9.5 18 9.5V10.5Z" fill="#F04E00"/>
</svg>
