<svg width="18" height="15" viewBox="0 0 18 15" fill="none" xmlns="http://www.w3.org/2000/svg">
<path d="M12 13H16.1111C16.602 13 17 12.6162 17 12.1429V1.85714C17 1.62045 16.9005 1.40616 16.7397 1.25105M16.7397 1.25105C16.5788 1.09594 16.3566 1 16.1111 1H1.88889C1.64343 1 1.4212 1.09594 1.26035 1.25105M16.7397 1.25105L10.2571 7.50206C9.56281 8.17153 8.43719 8.17153 7.74292 7.50206L1.26035 1.25105M1.26035 1.25105C1.09949 1.40616 1 1.62045 1 1.85714V7M9.5 14.5V13.25V13.25C9.5 11.7312 8.26878 10.5 6.75 10.5H1.5M1.5 10.5L3.5 12.5M1.5 10.5L3.5 8.5" stroke="black" stroke-linecap="round" stroke-linejoin="round"/>
</svg>
