<svg width="35" height="35" viewBox="0 0 35 35" fill="none" xmlns="http://www.w3.org/2000/svg">
<circle cx="17.5" cy="17.5" r="17" fill="white" stroke="#F04E00"/>
<path d="M22.2353 9L22.5888 8.64645C22.3936 8.45118 22.077 8.45118 21.8817 8.64645L22.2353 9ZM26 12.7647L26.3536 13.1183C26.5488 12.923 26.5488 12.6064 26.3536 12.4112L26 12.7647ZM17.5294 21.2353V21.7353C17.662 21.7353 17.7892 21.6826 17.883 21.5888L17.5294 21.2353ZM13.7647 21.2353H13.2647C13.2647 21.5114 13.4886 21.7353 13.7647 21.7353V21.2353ZM13.7647 17.4706L13.4112 17.117C13.3174 17.2108 13.2647 17.338 13.2647 17.4706H13.7647ZM25.0588 25V25.5C25.1914 25.5 25.3186 25.4473 25.4124 25.3536C25.5061 25.2598 25.5588 25.1326 25.5588 25H25.0588ZM10 25H9.5C9.5 25.2761 9.72386 25.5 10 25.5L10 25ZM10 9.94118L10 9.44118C9.72386 9.44118 9.5 9.66503 9.5 9.94118H10ZM15.6471 10.4412C15.9232 10.4412 16.1471 10.2173 16.1471 9.94118C16.1471 9.66503 15.9232 9.44118 15.6471 9.44118L15.6471 10.4412ZM25.5588 19.3529C25.5588 19.0768 25.335 18.8529 25.0588 18.8529C24.7827 18.8529 24.5588 19.0768 24.5588 19.3529H25.5588ZM21.8817 9.35355L25.6464 13.1183L26.3536 12.4112L22.5888 8.64645L21.8817 9.35355ZM17.5294 20.7353H13.7647V21.7353H17.5294V20.7353ZM14.2647 21.2353V17.4706H13.2647V21.2353H14.2647ZM14.1183 17.8241L19.7653 12.1771L19.0582 11.47L13.4112 17.117L14.1183 17.8241ZM19.7653 12.1771L22.5888 9.35355L21.8817 8.64645L19.0582 11.47L19.7653 12.1771ZM25.6464 12.4112L22.8229 15.2347L23.53 15.9418L26.3536 13.1183L25.6464 12.4112ZM22.8229 15.2347L17.1759 20.8817L17.883 21.5888L23.53 15.9418L22.8229 15.2347ZM23.53 15.2347L19.7653 11.47L19.0582 12.1771L22.8229 15.9418L23.53 15.2347ZM25.0588 24.5L10 24.5L10 25.5L25.0588 25.5V24.5ZM10.5 25L10.5 9.94118L9.5 9.94118L9.5 25H10.5ZM10 10.4412L15.6471 10.4412L15.6471 9.44118L10 9.44118L10 10.4412ZM24.5588 19.3529V25H25.5588V19.3529H24.5588Z" fill="#F04E00"/>
</svg>
