<svg width="20" height="16" viewBox="0 0 20 16" fill="none" xmlns="http://www.w3.org/2000/svg">
<path d="M1 8L0.547059 7.78824C0.484314 7.92244 0.484314 8.07756 0.547059 8.21176L1 8ZM19 8L19.4529 8.21176C19.5157 8.07756 19.5157 7.92244 19.4529 7.78824L19 8ZM1 8C1.45294 8.21176 1.45288 8.21189 1.45284 8.21198C1.45284 8.21198 1.45281 8.21205 1.45281 8.21204C1.45282 8.21203 1.45287 8.21191 1.45298 8.21168C1.45319 8.21124 1.4536 8.21037 1.4542 8.2091C1.45541 8.20654 1.45741 8.20234 1.4602 8.19655C1.46576 8.18497 1.47447 8.16702 1.48629 8.14313C1.50994 8.09534 1.54602 8.02383 1.59433 7.93197C1.69099 7.7482 1.83639 7.48343 2.02886 7.16472C2.41444 6.52624 2.9856 5.67678 3.72826 4.8296C5.22535 3.12181 7.34962 1.5 10 1.5V0.5C6.92311 0.5 4.54738 2.37819 2.97629 4.1704C2.18486 5.07322 1.57988 5.97376 1.17284 6.64778C0.969004 6.98532 0.813977 7.26743 0.70929 7.46646C0.656927 7.56602 0.617103 7.64489 0.590012 7.69964C0.576464 7.72702 0.566095 7.74838 0.55893 7.76329C0.555347 7.77074 0.552564 7.77658 0.550585 7.78076C0.549595 7.78285 0.548806 7.78452 0.548218 7.78577C0.547924 7.78639 0.547681 7.78691 0.547488 7.78732C0.547391 7.78753 0.547284 7.78776 0.547235 7.78786C0.547141 7.78806 0.547059 7.78824 1 8ZM10 1.5C12.6504 1.5 14.7747 3.12181 16.2717 4.8296C17.0144 5.67678 17.5856 6.52624 17.9711 7.16472C18.1636 7.48343 18.309 7.7482 18.4057 7.93197C18.454 8.02383 18.4901 8.09534 18.5137 8.14313C18.5255 8.16702 18.5342 8.18497 18.5398 8.19655C18.5426 8.20234 18.5446 8.20654 18.5458 8.2091C18.5464 8.21037 18.5468 8.21124 18.547 8.21168C18.5471 8.21191 18.5472 8.21203 18.5472 8.21204C18.5472 8.21205 18.5472 8.21198 18.5472 8.21198C18.5471 8.21189 18.5471 8.21176 19 8C19.4529 7.78824 19.4529 7.78806 19.4528 7.78786C19.4527 7.78776 19.4526 7.78753 19.4525 7.78732C19.4523 7.78691 19.4521 7.78639 19.4518 7.78577C19.4512 7.78452 19.4504 7.78285 19.4494 7.78076C19.4474 7.77658 19.4447 7.77074 19.4411 7.76329C19.4339 7.74838 19.4235 7.72702 19.41 7.69964C19.3829 7.64489 19.3431 7.56602 19.2907 7.46646C19.186 7.26743 19.031 6.98532 18.8272 6.64778C18.4201 5.97376 17.8151 5.07322 17.0237 4.1704C15.4526 2.37819 13.0769 0.5 10 0.5V1.5ZM19 8C18.5471 7.78824 18.5471 7.78811 18.5472 7.78802C18.5472 7.78802 18.5472 7.78795 18.5472 7.78796C18.5472 7.78797 18.5471 7.78809 18.547 7.78832C18.5468 7.78876 18.5464 7.78963 18.5458 7.7909C18.5446 7.79346 18.5426 7.79766 18.5398 7.80345C18.5342 7.81503 18.5255 7.83298 18.5137 7.85687C18.4901 7.90466 18.454 7.97617 18.4057 8.06803C18.309 8.2518 18.1636 8.51657 17.9711 8.83528C17.5856 9.47376 17.0144 10.3232 16.2717 11.1704C14.7747 12.8782 12.6504 14.5 10 14.5V15.5C13.0769 15.5 15.4526 13.6218 17.0237 11.8296C17.8151 10.9268 18.4201 10.0262 18.8272 9.35222C19.031 9.01468 19.186 8.73257 19.2907 8.53354C19.3431 8.43398 19.3829 8.35511 19.41 8.30036C19.4235 8.27298 19.4339 8.25162 19.4411 8.23671C19.4447 8.22926 19.4474 8.22342 19.4494 8.21924C19.4504 8.21715 19.4512 8.21548 19.4518 8.21423C19.4521 8.21361 19.4523 8.21309 19.4525 8.21268C19.4526 8.21247 19.4527 8.21224 19.4528 8.21214C19.4529 8.21194 19.4529 8.21176 19 8ZM10 14.5C7.34962 14.5 5.22535 12.8782 3.72826 11.1704C2.9856 10.3232 2.41444 9.47376 2.02886 8.83528C1.83639 8.51657 1.69099 8.2518 1.59433 8.06803C1.54602 7.97617 1.50994 7.90466 1.48629 7.85687C1.47447 7.83298 1.46576 7.81503 1.4602 7.80345C1.45741 7.79766 1.45541 7.79346 1.4542 7.7909C1.4536 7.78963 1.45319 7.78876 1.45298 7.78832C1.45287 7.78809 1.45282 7.78797 1.45281 7.78796C1.45281 7.78795 1.45284 7.78802 1.45284 7.78802C1.45288 7.78811 1.45294 7.78824 1 8C0.547059 8.21176 0.547141 8.21194 0.547235 8.21214C0.547284 8.21224 0.547391 8.21247 0.547488 8.21268C0.547681 8.21309 0.547924 8.21361 0.548218 8.21423C0.548806 8.21548 0.549595 8.21715 0.550585 8.21924C0.552564 8.22342 0.555347 8.22926 0.55893 8.23671C0.566095 8.25162 0.576464 8.27298 0.590012 8.30036C0.617103 8.35511 0.656927 8.43398 0.70929 8.53354C0.813977 8.73257 0.969004 9.01468 1.17284 9.35222C1.57988 10.0262 2.18486 10.9268 2.97629 11.8296C4.54738 13.6218 6.92311 15.5 10 15.5V14.5ZM12.2 8C12.2 9.43157 11.1668 10.5 10 10.5V11.5C11.8156 11.5 13.2 9.88214 13.2 8H12.2ZM10 10.5C8.83322 10.5 7.8 9.43157 7.8 8H6.8C6.8 9.88214 8.18444 11.5 10 11.5V10.5ZM7.8 8C7.8 6.56843 8.83322 5.5 10 5.5V4.5C8.18444 4.5 6.8 6.11786 6.8 8H7.8ZM10 5.5C11.1668 5.5 12.2 6.56843 12.2 8H13.2C13.2 6.11786 11.8156 4.5 10 4.5V5.5Z" fill="black"/>
</svg>
