<svg width="64" height="33" viewBox="0 0 64 33" fill="none" xmlns="http://www.w3.org/2000/svg">
<path d="M41.7219 1.02236H54.2679C57.2952 1.02236 59.6825 1.85048 61.4095 3.51693C63.1365 5.18339 64 7.5246 64 10.5508C64 13.5361 63.1162 15.8773 61.3486 17.5847C59.581 19.292 57.2038 20.1406 54.207 20.1406H46.3238V30.9163H41.7219V1.02236ZM46.3238 5.13227V16.0307H53.5771C55.3041 16.0307 56.6451 15.7137 57.6102 15.0799C58.5651 14.446 59.0425 13.3623 59.0425 11.8288V9.39553C59.0425 7.86198 58.5651 6.76805 57.6102 6.11374C56.6451 5.45942 55.3041 5.13227 53.5771 5.13227H46.3238Z" fill="black"/>
<path d="M4.6019 1.02236H0V30.9163H4.6019V1.02236Z" fill="black"/>
<path d="M27.3168 13.5361V17.5949H30.0495C30.4152 20.7131 29.7143 23.5655 28.099 25.4671C26.6768 27.1438 24.6451 28.0026 22.0851 28.0026C19.6165 28.0026 15.4717 27.3278 15.4717 22.8396C15.4717 19.5374 19.1289 17.5029 21.7498 17.5029H23.487V13.5361H21.5365C19.3321 13.5361 17.0463 11.7163 17.0463 8.66965C17.0463 5.73546 19.0578 3.977 22.4305 3.977C24.5029 3.977 26.1283 4.47796 27.8349 5.65367L28.1702 5.88882L30.6286 2.60703L30.273 2.35144C27.9365 0.695208 25.5695 0 22.339 0C16.9244 0 12.8406 3.72141 12.8406 8.65942C12.8406 11.7572 14.019 13.945 16.4267 15.3048C13.2267 16.6543 11.2762 19.4658 11.2762 22.8294C11.2762 28.5751 16.7721 32.0102 22.0851 32.0102C25.9048 32.0102 29.2063 30.4665 31.4108 27.655C33.5238 24.9457 34.4178 21.2754 33.92 17.6051H37.8311V13.5361H27.3168Z" fill="black"/>
</svg>
