<svg width="40" height="40" viewBox="0 0 40 40" fill="none" xmlns="http://www.w3.org/2000/svg">
<circle cx="20" cy="20" r="20" fill="black"/>
<mask id="mask0_726_819" style="mask-type:alpha" maskUnits="userSpaceOnUse" x="0" y="0" width="40" height="40">
<circle cx="20" cy="20" r="20" fill="black"/>
</mask>
<g mask="url(#mask0_726_819)">
<circle cx="20" cy="17" r="9" stroke="white" stroke-width="2"/>
<path d="M33 35C33 37.3547 31.6655 39.5807 29.3183 41.2573C26.9729 42.9326 23.6816 44 20 44C16.3184 44 13.0271 42.9326 10.6817 41.2573C8.33448 39.5807 7 37.3547 7 35C7 32.6453 8.33448 30.4193 10.6817 28.7427C13.0271 27.0674 16.3184 26 20 26C23.6816 26 26.9729 27.0674 29.3183 28.7427C31.6655 30.4193 33 32.6453 33 35Z" stroke="white" stroke-width="2"/>
</g>
</svg>
