<?xml version="1.0" encoding="utf-8"?><svg width="16" height="16" fill="none" xmlns="http://www.w3.org/2000/svg" viewBox="0 0 16 16"><path d="M15.5 11.73l-.5-.012v.013h.5zm0 2.259H15v.002l.5-.002zM2.006.5V0v.5zm2.262 0V1h.005L4.27.5zm.999.364l-.326.38.326-.38zm-.26 5.59L4.655 6.1a.5.5 0 00-.08.602l.433-.248zm4.526 4.516l-.247.435a.5.5 0 00.6-.08l-.353-.355zm5.608-.25l.382-.324-.382.324zM6.37 4.754l.489.104-.489-.104zm4.869 4.858l.104.49-.104-.49zm2.617 5.882l.045-.498a.524.524 0 00-.045-.002v.5zM.505 2.141h.5a.5.5 0 00-.001-.045l-.498.045zm9.674.785a.5.5 0 00-.191.981l.191-.981zm1.913 3.086a.5.5 0 00.982-.191l-.982.191zM10.555.003a.5.5 0 00-.11.994l.11-.994zm3.278 2.164l.354-.354-.354.354zm1.17 3.389a.5.5 0 10.994-.112l-.994.112zM15 11.73v2.258h1V11.73h-1zM2.007 1h2.262V0H2.007v1zm2.267 0a1.01 1.01 0 01.668.242l.651-.758A2.01 2.01 0 004.264 0l.01 1zm.3 5.7a12.555 12.555 0 004.713 4.704l.494-.87a11.556 11.556 0 01-4.338-4.328l-.869.495zm10.187 4.343c.16.188.245.428.239.674l1 .025a2.003 2.003 0 00-.476-1.347l-.763.648zm-9.819-9.8c.121.103.265.303.407.6.139.29.26.638.355 1.002.195.75.249 1.462.176 1.803l.978.21c.122-.574.02-1.469-.187-2.265a6.677 6.677 0 00-.42-1.18c-.168-.353-.384-.695-.658-.93l-.65.76zm6.4 8.857c.343-.073 1.059-.018 1.813.178a5.68 5.68 0 011.006.356c.298.143.497.287.6.409l.763-.648c-.235-.276-.578-.493-.931-.663a6.671 6.671 0 00-1.186-.422c-.8-.208-1.7-.31-2.274-.188l.209.979zm-1.455 1.223c.132-.132.265-.28.387-.412.127-.138.247-.266.37-.383.25-.236.473-.38.698-.428l-.209-.978c-.49.105-.874.396-1.175.678a8.255 8.255 0 00-.42.435c-.132.143-.245.268-.357.38l.706.708zM5.88 4.65c-.048.224-.192.446-.428.696a7.32 7.32 0 01-.383.369c-.134.121-.281.254-.414.386l.707.708c.112-.112.237-.225.381-.356.14-.127.292-.268.435-.42.284-.3.575-.684.68-1.174L5.88 4.65zm7.975 10.345C6.61 15 1 9.338 1.005 2.141h-1C0 9.887 6.056 16 13.856 15.994v-1zm1.144-1.003a1.03 1.03 0 01-1.099 1.005l-.09.996c1.167.105 2.194-.849 2.19-2.005l-1 .004zM1.005 2.096C.952 1.525 1.436 1 2.007 1V0C.853.001-.098 1.023.006 2.186l.997-.09zm8.984 1.811c.543.107 1.053.342 1.408.697l.707-.708c-.53-.53-1.24-.836-1.924-.97l-.191.981zm1.408.697c.355.354.59.865.696 1.408l.982-.191c-.134-.685-.44-1.394-.97-1.925l-.708.708zM10.445.997c1.147.127 2.194.684 3.035 1.523l.707-.707C13.21.837 11.96.159 10.555.003l-.11.994zM13.48 2.52c.84.839 1.394 1.887 1.523 3.036l.994-.112c-.158-1.403-.833-2.655-1.81-3.631l-.707.707z" fill="#000"/></svg>