<?xml version="1.0" encoding="utf-8"?><svg width="24" height="16" fill="none" xmlns="http://www.w3.org/2000/svg" viewBox="0 0 24 16"><path d="M14 10h-4a4 4 0 00-4 4v1h12v-1a4 4 0 00-4-4zM12 7a3 3 0 100-6 3 3 0 000 6z" fill="#E1F3FD"/><path d="M1 15H.5a.5.5 0 00.5.5V15zm2 .5a.5.5 0 000-1v1zm1.125-4.89a.5.5 0 10-.25-.968l.25.968zM5.833 7.3a.5.5 0 10.334-.942l-.334.943zm.334-5.658A.5.5 0 005.833.7l.334.943zM23 15v.5a.5.5 0 00.5-.5H23zm-2-.5a.5.5 0 100 1v-1zm-.875-4.858a.5.5 0 10-.25.968l.25-.968zM18.167.699a.5.5 0 10-.334.943L18.167.7zm-.334 5.659a.5.5 0 00.334.943l-.334-.943zM18 15v.5a.5.5 0 00.5-.5H18zM6 15h-.5a.5.5 0 00.5.5V15zM.5 14v1h1v-1h-1zm.5 1.5h2v-1H1v1zm.5-1.5a3.502 3.502 0 012.625-3.39l-.25-.968A4.502 4.502 0 00.5 14h1zm2-10c0 1.525.975 2.82 2.333 3.3l.334-.942A2.501 2.501 0 014.5 4h-1zM5.833.7A3.501 3.501 0 003.5 4h1c0-1.088.695-2.014 1.667-2.358L5.833.7zM22.5 14v1h1v-1h-1zm.5.5h-2v1h2v-1zm.5-.5a4.502 4.502 0 00-3.375-4.358l-.25.968A3.502 3.502 0 0122.5 14h1zM17.833 1.642A2.501 2.501 0 0119.5 4h1c0-1.525-.975-2.82-2.333-3.3l-.334.942zM19.5 4a2.501 2.501 0 01-1.667 2.358l.334.943A3.501 3.501 0 0020.5 4h-1zM10 10.5h4v-1h-4v1zm7.5 3.5v1h1v-1h-1zm-11 1v-1h-1v1h1zm7.5-4.5a3.5 3.5 0 013.5 3.5h1A4.5 4.5 0 0014 9.5v1zm-4-1A4.5 4.5 0 005.5 14h1a3.5 3.5 0 013.5-3.5v-1zm8 5H6v1h12v-1zM14.5 4A2.5 2.5 0 0112 6.5v1A3.5 3.5 0 0015.5 4h-1zM12 6.5A2.5 2.5 0 019.5 4h-1A3.5 3.5 0 0012 7.5v-1zM9.5 4A2.5 2.5 0 0112 1.5v-1A3.5 3.5 0 008.5 4h1zM12 1.5A2.5 2.5 0 0114.5 4h1A3.5 3.5 0 0012 .5v1z" fill="#000"/></svg>