<?xml version="1.0" encoding="utf-8"?><svg width="18" height="18" fill="none" xmlns="http://www.w3.org/2000/svg" viewBox="0 0 18 18"><path d="M17 4.765L13.235 1l-2.823 2.824L4.765 9.47v3.764h3.764l5.648-5.647L17 4.765z" fill="#E1F3FD"/><path d="M13.235 1l.354-.354a.5.5 0 00-.707 0l.353.354zM17 4.765l.354.353a.5.5 0 000-.707L17 4.765zm-8.47 8.47v.5a.5.5 0 00.353-.146l-.354-.354zm-3.765 0h-.5a.5.5 0 00.5.5v-.5zm0-3.764l-.354-.354a.5.5 0 00-.146.354h.5zM16.059 17v.5a.5.5 0 00.5-.5h-.5zM1 17H.5a.5.5 0 00.5.5V17zM1 1.941v-.5a.5.5 0 00-.5.5H1zm5.647.5a.5.5 0 000-1v1zm9.912 8.912a.5.5 0 10-1 0h1zm-3.677-10l3.764 3.765.708-.707L13.589.646l-.707.708zM8.529 12.736H4.765v1h3.764v-1zm-3.264.5V9.471h-1v3.764h1zm-.147-3.41l5.647-5.648-.707-.707-5.647 5.647.707.707zm5.647-5.648l2.824-2.823-.707-.708-2.824 2.824.707.707zm5.881.234l-2.823 2.824.707.707 2.824-2.824-.708-.707zm-2.823 2.824l-5.647 5.647.707.707 5.647-5.647-.707-.707zm.707 0L10.765 3.47l-.707.707 3.765 3.765.707-.707zm1.529 9.265H1v1h15.059v-1zM1.5 17V1.941h-1V17h1zM1 2.441h5.647v-1H1v1zm14.559 8.912V17h1v-5.647h-1z" fill="#000"/></svg>