<?xml version="1.0" encoding="utf-8"?><svg width="16" height="22" fill="none" xmlns="http://www.w3.org/2000/svg" viewBox="0 0 16 22"><path d="M8 18l-.36.347a.5.5 0 00.706.014L8 18zm-5.5 3a.5.5 0 000 1v-1zm11 1a.5.5 0 000-1v1zM6 11.374v.5-.5zm4 0v.5-.5zM11.5 14a.5.5 0 001 0h-1zm-8 0a.5.5 0 001 0h-1zm11-6.026c0 1.756-.869 3.387-2.192 4.996-1.327 1.613-3.04 3.122-4.654 4.669l.692.722c1.57-1.504 3.358-3.082 4.735-4.756 1.38-1.679 2.419-3.534 2.419-5.63h-1zm-6.14 9.68c-1.515-1.573-3.208-3.057-4.58-4.688C2.421 11.35 1.5 9.72 1.5 7.974h-1c0 2.105 1.109 3.964 2.515 5.635 1.392 1.656 3.2 3.258 4.625 4.738l.72-.694zM1.5 7.973C1.5 4.4 4.408 1.5 8 1.5v-1C3.86.5.5 3.845.5 7.974h1zM8 1.5c3.592 0 6.5 2.9 6.5 6.474h1C15.5 3.844 12.14.5 8 .5v1zM2.5 22h11v-1h-11v1zm7-14.875c0 .926-.7 1.624-1.5 1.624v1c1.409 0 2.5-1.204 2.5-2.624h-1zM8 8.749c-.8 0-1.5-.698-1.5-1.624h-1c0 1.42 1.091 2.624 2.5 2.624v-1zM6.5 7.125C6.5 6.198 7.2 5.5 8 5.5v-1c-1.409 0-2.5 1.204-2.5 2.625h1zM8 5.5c.8 0 1.5.698 1.5 1.625h1C10.5 5.704 9.409 4.5 8 4.5v1zm-2 6.374h4v-1H6v1zm4 0c.387 0 .751.232 1.043.663.292.43.457.99.457 1.463h1a3.74 3.74 0 00-.629-2.024c-.403-.595-1.039-1.102-1.871-1.102v1zM4.5 14c0-.473.165-1.032.457-1.463.292-.43.656-.663 1.043-.663v-1c-.832 0-1.468.507-1.871 1.102A3.74 3.74 0 003.5 14h1z" fill="#000"/></svg>