<?xml version="1.0" encoding="utf-8"?><svg width="69" height="74" fill="none" xmlns="http://www.w3.org/2000/svg" viewBox="0 0 69 74"><path d="M1 17a.5.5 0 000 1v-1zm62 1a.5.5 0 000-1v1zm-41-6a.5.5 0 000 1v-1zm20 1a.5.5 0 000-1v1zm21.687 41.354a.5.5 0 00-.707-.708l.707.708zm-8.52 7.813l-.354.353a.5.5 0 00.707 0l-.353-.353zm-3.147-3.854a.5.5 0 00-.707.707l.707-.707zM63 48.554l-.262.426.262-.426zm0 17.892l-.262-.426.262.426zM4 5.5h56v-1H4v1zm56 67H4v1h56v-1zM1.5 70V8h-1v62h1zM4 72.5A2.5 2.5 0 011.5 70h-1A3.5 3.5 0 004 73.5v-1zM62.5 70a2.5 2.5 0 01-2.5 2.5v1a3.5 3.5 0 003.5-3.5h-1zM60 5.5A2.5 2.5 0 0162.5 8h1A3.5 3.5 0 0060 4.5v1zm-56-1A3.5 3.5 0 00.5 8h1A2.5 2.5 0 014 5.5v-1zm7.5-3v7h1v-7h-1zm0 7v-7h-1v7h1zm0 0h-1a1 1 0 001 1v-1zm0 0v1a1 1 0 001-1h-1zm0-7h1a1 1 0 00-1-1v1zm0-1a1 1 0 00-1 1h1v-1zm42 1v7h1v-7h-1zm0 7v-7h-1v7h1zm0 0h-1a1 1 0 001 1v-1zm0 0v1a1 1 0 001-1h-1zm0-7h1a1 1 0 00-1-1v1zm0-1a1 1 0 00-1 1h1v-1zM1 18h62v-1H1v1zm21-5h20v-1H22v1zm-8.5 15.5a1 1 0 01-1 1v1a2 2 0 002-2h-1zm-1 1a1 1 0 01-1-1h-1a2 2 0 002 2v-1zm-1-1a1 1 0 011-1v-1a2 2 0 00-2 2h1zm1-1a1 1 0 011 1h1a2 2 0 00-2-2v1zm14 1a1 1 0 01-1 1v1a2 2 0 002-2h-1zm-1 1a1 1 0 01-1-1h-1a2 2 0 002 2v-1zm-1-1a1 1 0 011-1v-1a2 2 0 00-2 2h1zm1-1a1 1 0 011 1h1a2 2 0 00-2-2v1zm14 1a1 1 0 01-1 1v1a2 2 0 002-2h-1zm-1 1a1 1 0 01-1-1h-1a2 2 0 002 2v-1zm-1-1a1 1 0 011-1v-1a2 2 0 00-2 2h1zm1-1a1 1 0 011 1h1a2 2 0 00-2-2v1zm14 1a1 1 0 01-1 1v1a2 2 0 002-2h-1zm-1 1a1 1 0 01-1-1h-1a2 2 0 002 2v-1zm-1-1a1 1 0 011-1v-1a2 2 0 00-2 2h1zm1-1a1 1 0 011 1h1a2 2 0 00-2-2v1zm-38 13a1 1 0 01-1 1v1a2 2 0 002-2h-1zm-1 1a1 1 0 01-1-1h-1a2 2 0 002 2v-1zm-1-1a1 1 0 011-1v-1a2 2 0 00-2 2h1zm1-1a1 1 0 011 1h1a2 2 0 00-2-2v1zm14 1a1 1 0 01-1 1v1a2 2 0 002-2h-1zm-1 1a1 1 0 01-1-1h-1a2 2 0 002 2v-1zm-1-1a1 1 0 011-1v-1a2 2 0 00-2 2h1zm1-1a1 1 0 011 1h1a2 2 0 00-2-2v1zm14 1a1 1 0 01-1 1v1a2 2 0 002-2h-1zm-1 1a1 1 0 01-1-1h-1a2 2 0 002 2v-1zm-1-1a1 1 0 011-1v-1a2 2 0 00-2 2h1zm1-1a1 1 0 011 1h1a2 2 0 00-2-2v1zm14 1a1 1 0 01-1 1v1a2 2 0 002-2h-1zm-1 1a1 1 0 01-1-1h-1a2 2 0 002 2v-1zm-1-1a1 1 0 011-1v-1a2 2 0 00-2 2h1zm1-1a1 1 0 011 1h1a2 2 0 00-2-2v1zm-38 13a1 1 0 01-1 1v1a2 2 0 002-2h-1zm-1 1a1 1 0 01-1-1h-1a2 2 0 002 2v-1zm-1-1a1 1 0 011-1v-1a2 2 0 00-2 2h1zm1-1a1 1 0 011 1h1a2 2 0 00-2-2v1zm14 1a1 1 0 01-1 1v1a2 2 0 002-2h-1zm-1 1a1 1 0 01-1-1h-1a2 2 0 002 2v-1zm-1-1a1 1 0 011-1v-1a2 2 0 00-2 2h1zm1-1a1 1 0 011 1h1a2 2 0 00-2-2v1zm14 1a1 1 0 01-1 1v1a2 2 0 002-2h-1zm-1 1a1 1 0 01-1-1h-1a2 2 0 002 2v-1zm-1-1a1 1 0 011-1v-1a2 2 0 00-2 2h1zm1-1a1 1 0 011 1h1a2 2 0 00-2-2v1zm24.48 2.146l-8.167 8.167.707.707 8.167-8.166-.707-.708zM51.313 59.02l3.5 3.5.707-.707-3.5-3.5-.707.707zM57.5 67.5c-5.523 0-10-4.477-10-10h-1c0 6.075 4.925 11 11 11v-1zm-10-10c0-5.523 4.477-10 10-10v-1c-6.075 0-11 4.925-11 11h1zm10-10a9.95 9.95 0 015.238 1.48l.524-.852A10.95 10.95 0 0057.5 46.5v1zm5.238 1.48A9.993 9.993 0 0167.5 57.5h1c0-3.963-2.096-7.436-5.238-9.372l-.524.852zM62.5 8v40.554h1V8h-1zm5 49.5a9.994 9.994 0 01-4.762 8.52l.524.852A10.994 10.994 0 0068.5 57.5h-1zm-4.762 8.52A9.95 9.95 0 0157.5 67.5v1a10.95 10.95 0 005.762-1.628l-.524-.852zM63.5 70v-3.554h-1V70h1z" fill="#000"/></svg>