<?xml version="1.0" encoding="utf-8"?><svg width="20" height="16" fill="none" xmlns="http://www.w3.org/2000/svg" viewBox="0 0 20 16"><path d="M1 8l-.453-.212a.5.5 0 000 .424L1 8zm18 0l.453.212a.5.5 0 000-.424L19 8zM1 8l.453.212.001-.003a1.923 1.923 0 01.032-.066 15.065 15.065 0 01.543-.978c.385-.639.957-1.488 1.7-2.335C5.224 3.122 7.348 1.5 10 1.5v-1C6.923.5 4.547 2.378 2.976 4.17A17.626 17.626 0 00.71 7.466a10.691 10.691 0 00-.16.32l-.002.001L1 8zm9-6.5c2.65 0 4.775 1.622 6.272 3.33a16.617 16.617 0 012.242 3.313 6.854 6.854 0 01.033.069L19 8l.453-.212-.001-.002-.003-.005-.008-.018a8.796 8.796 0 00-.15-.297 17.635 17.635 0 00-2.267-3.296C15.453 2.378 13.077.5 10 .5v1zM19 8a99.694 99.694 0 01-.453-.212.2.2 0 01-.007.015 6.854 6.854 0 01-.134.265 16.618 16.618 0 01-2.134 3.102C14.775 12.878 12.65 14.5 10 14.5v1c3.077 0 5.453-1.878 7.024-3.67a17.636 17.636 0 002.267-3.296 10.585 10.585 0 00.15-.297l.008-.018.003-.005v-.001L19 8zm-9 6.5c-2.65 0-4.775-1.622-6.272-3.33a16.628 16.628 0 01-2.242-3.313 5.13 5.13 0 01-.032-.066l-.001-.003L1 8a56.988 56.988 0 00-.453.213l.001.001A2.168 2.168 0 00.59 8.3a16.067 16.067 0 00.583 1.052 17.628 17.628 0 001.803 2.478C4.547 13.622 6.923 15.5 10 15.5v-1zM12.2 8c0 1.432-1.033 2.5-2.2 2.5v1c1.816 0 3.2-1.618 3.2-3.5h-1zM10 10.5c-1.167 0-2.2-1.068-2.2-2.5h-1c0 1.882 1.384 3.5 3.2 3.5v-1zM7.8 8c0-1.432 1.033-2.5 2.2-2.5v-1C8.184 4.5 6.8 6.118 6.8 8h1zM10 5.5c1.167 0 2.2 1.068 2.2 2.5h1c0-1.882-1.384-3.5-3.2-3.5v1z" fill="#000"/></svg>