<?xml version="1.0" encoding="utf-8"?><svg width="20" height="20" fill="none" xmlns="http://www.w3.org/2000/svg" viewBox="0 0 20 20"><path d="M17.2 12.834C18.377 11.332 19 10 19 10s-3.273-7-9-7a6.971 6.971 0 00-1.8.236M10 7c.316 0 .618.06.9.17.767.302 1.375.978 1.646 1.83.1.313.154.65.154 1M1.9 1l16.2 18M10 13c-.316 0-.618-.06-.9-.17-.767-.302-1.375-.978-1.646-1.83a3.248 3.248 0 01-.117-.5M2.932 7c-.277.345-.526.682-.745 1C1.407 9.128 1 10 1 10s3.273 7 9 7c.307 0 .607-.02.9-.058" stroke="#000" stroke-linecap="round" stroke-linejoin="round"/></svg>