<?xml version="1.0" encoding="utf-8"?><svg width="64" height="33" fill="none" xmlns="http://www.w3.org/2000/svg" viewBox="0 0 64 33"><path d="M41.722 1.022h12.546c3.027 0 5.414.828 7.142 2.495C63.136 5.183 64 7.525 64 10.55c0 2.985-.884 5.326-2.651 7.034-1.768 1.707-4.145 2.556-7.142 2.556h-7.883v10.775h-4.602V1.022zm4.602 4.11v10.899h7.253c1.727 0 3.068-.317 4.033-.951.955-.634 1.432-1.718 1.432-3.251V9.396c0-1.534-.477-2.628-1.432-3.282-.965-.655-2.306-.982-4.033-.982h-7.253zM4.602 1.022H0v29.894h4.602V1.022zM27.317 13.536v4.059h2.732c.366 3.118-.335 5.97-1.95 7.872-1.422 1.677-3.454 2.536-6.014 2.536-2.469 0-6.613-.675-6.613-5.163 0-3.303 3.657-5.337 6.278-5.337h1.737v-3.967h-1.95c-2.205 0-4.49-1.82-4.49-4.866 0-2.935 2.01-4.693 5.383-4.693 2.073 0 3.698.501 5.405 1.677l.335.235 2.459-3.282-.356-.256C27.936.695 25.57 0 22.339 0c-5.415 0-9.498 3.721-9.498 8.66 0 3.097 1.178 5.285 3.586 6.645-3.2 1.35-5.15 4.16-5.15 7.524 0 5.746 5.495 9.181 10.808 9.181 3.82 0 7.121-1.543 9.326-4.355 2.113-2.71 3.007-6.38 2.509-10.05h3.911v-4.069H27.317z" fill="#000"/></svg>