<?xml version="1.0" encoding="utf-8"?><svg width="40" height="40" fill="none" xmlns="http://www.w3.org/2000/svg" viewBox="0 0 40 40"><circle cx="20" cy="20" r="20" fill="#000"/><mask id="oa" style="mask-type:alpha" maskUnits="userSpaceOnUse" x="0" y="0" width="40" height="40"><circle cx="20" cy="20" r="20" fill="#000"/></mask><g mask="url(#oa)" stroke="#fff" stroke-width="2"><circle cx="20" cy="17" r="9"/><path d="M33 35c0 2.355-1.334 4.58-3.682 6.257C26.973 42.933 23.682 44 20 44c-3.682 0-6.973-1.067-9.318-2.743C8.334 39.581 7 37.355 7 35c0-2.355 1.334-4.58 3.682-6.257C13.027 27.067 16.318 26 20 26c3.682 0 6.973 1.067 9.318 2.743C31.666 30.419 33 32.645 33 35z"/></g></svg>