<?xml version="1.0" encoding="utf-8"?><svg viewBox="0 0 69 74" xmlns="http://www.w3.org/2000/svg" xmlns:xlink="http://www.w3.org/1999/xlink"><style>:root>svg{display:none}:root>svg:target{display:block}</style><svg fill="none" viewBox="0 0 16 16" id="1" xmlns="http://www.w3.org/2000/svg"><path d="M15.5 11.73l-.5-.012v.013h.5zm0 2.259H15v.002l.5-.002zM2.006.5V0v.5zm2.262 0V1h.005L4.27.5zm.999.364l-.326.38.326-.38zm-.26 5.59L4.655 6.1a.5.5 0 00-.08.602l.433-.248zm4.526 4.516l-.247.435a.5.5 0 00.6-.08l-.353-.355zm5.608-.25l.382-.324-.382.324zM6.37 4.754l.489.104-.489-.104zm4.869 4.858l.104.49-.104-.49zm2.617 5.882l.045-.498a.524.524 0 00-.045-.002v.5zM.505 2.141h.5a.5.5 0 00-.001-.045l-.498.045zm9.674.785a.5.5 0 00-.191.981l.191-.981zm1.913 3.086a.5.5 0 00.982-.191l-.982.191zM10.555.003a.5.5 0 00-.11.994l.11-.994zm3.278 2.164l.354-.354-.354.354zm1.17 3.389a.5.5 0 10.994-.112l-.994.112zM15 11.73v2.258h1V11.73h-1zM2.007 1h2.262V0H2.007v1zm2.267 0a1.01 1.01 0 01.668.242l.651-.758A2.01 2.01 0 004.264 0l.01 1zm.3 5.7a12.555 12.555 0 004.713 4.704l.494-.87a11.556 11.556 0 01-4.338-4.328l-.869.495zm10.187 4.343c.16.188.245.428.239.674l1 .025a2.003 2.003 0 00-.476-1.347l-.763.648zm-9.819-9.8c.121.103.265.303.407.6.139.29.26.638.355 1.002.195.75.249 1.462.176 1.803l.978.21c.122-.574.02-1.469-.187-2.265a6.677 6.677 0 00-.42-1.18c-.168-.353-.384-.695-.658-.93l-.65.76zm6.4 8.857c.343-.073 1.059-.018 1.813.178a5.68 5.68 0 011.006.356c.298.143.497.287.6.409l.763-.648c-.235-.276-.578-.493-.931-.663a6.671 6.671 0 00-1.186-.422c-.8-.208-1.7-.31-2.274-.188l.209.979zm-1.455 1.223c.132-.132.265-.28.387-.412.127-.138.247-.266.37-.383.25-.236.473-.38.698-.428l-.209-.978c-.49.105-.874.396-1.175.678a8.255 8.255 0 00-.42.435c-.132.143-.245.268-.357.38l.706.708zM5.88 4.65c-.048.224-.192.446-.428.696a7.32 7.32 0 01-.383.369c-.134.121-.281.254-.414.386l.707.708c.112-.112.237-.225.381-.356.14-.127.292-.268.435-.42.284-.3.575-.684.68-1.174L5.88 4.65zm7.975 10.345C6.61 15 1 9.338 1.005 2.141h-1C0 9.887 6.056 16 13.856 15.994v-1zm1.144-1.003a1.03 1.03 0 01-1.099 1.005l-.09.996c1.167.105 2.194-.849 2.19-2.005l-1 .004zM1.005 2.096C.952 1.525 1.436 1 2.007 1V0C.853.001-.098 1.023.006 2.186l.997-.09zm8.984 1.811c.543.107 1.053.342 1.408.697l.707-.708c-.53-.53-1.24-.836-1.924-.97l-.191.981zm1.408.697c.355.354.59.865.696 1.408l.982-.191c-.134-.685-.44-1.394-.97-1.925l-.708.708zM10.445.997c1.147.127 2.194.684 3.035 1.523l.707-.707C13.21.837 11.96.159 10.555.003l-.11.994zM13.48 2.52c.84.839 1.394 1.887 1.523 3.036l.994-.112c-.158-1.403-.833-2.655-1.81-3.631l-.707.707z" fill="#000"/></svg><svg fill="none" viewBox="0 0 24 16" id="2" xmlns="http://www.w3.org/2000/svg"><path d="M14 10h-4a4 4 0 00-4 4v1h12v-1a4 4 0 00-4-4zM12 7a3 3 0 100-6 3 3 0 000 6z" fill="#E1F3FD"/><path d="M1 15H.5a.5.5 0 00.5.5V15zm2 .5a.5.5 0 000-1v1zm1.125-4.89a.5.5 0 10-.25-.968l.25.968zM5.833 7.3a.5.5 0 10.334-.942l-.334.943zm.334-5.658A.5.5 0 005.833.7l.334.943zM23 15v.5a.5.5 0 00.5-.5H23zm-2-.5a.5.5 0 100 1v-1zm-.875-4.858a.5.5 0 10-.25.968l.25-.968zM18.167.699a.5.5 0 10-.334.943L18.167.7zm-.334 5.659a.5.5 0 00.334.943l-.334-.943zM18 15v.5a.5.5 0 00.5-.5H18zM6 15h-.5a.5.5 0 00.5.5V15zM.5 14v1h1v-1h-1zm.5 1.5h2v-1H1v1zm.5-1.5a3.502 3.502 0 012.625-3.39l-.25-.968A4.502 4.502 0 00.5 14h1zm2-10c0 1.525.975 2.82 2.333 3.3l.334-.942A2.501 2.501 0 014.5 4h-1zM5.833.7A3.501 3.501 0 003.5 4h1c0-1.088.695-2.014 1.667-2.358L5.833.7zM22.5 14v1h1v-1h-1zm.5.5h-2v1h2v-1zm.5-.5a4.502 4.502 0 00-3.375-4.358l-.25.968A3.502 3.502 0 0122.5 14h1zM17.833 1.642A2.501 2.501 0 0119.5 4h1c0-1.525-.975-2.82-2.333-3.3l-.334.942zM19.5 4a2.501 2.501 0 01-1.667 2.358l.334.943A3.501 3.501 0 0020.5 4h-1zM10 10.5h4v-1h-4v1zm7.5 3.5v1h1v-1h-1zm-11 1v-1h-1v1h1zm7.5-4.5a3.5 3.5 0 013.5 3.5h1A4.5 4.5 0 0014 9.5v1zm-4-1A4.5 4.5 0 005.5 14h1a3.5 3.5 0 013.5-3.5v-1zm8 5H6v1h12v-1zM14.5 4A2.5 2.5 0 0112 6.5v1A3.5 3.5 0 0015.5 4h-1zM12 6.5A2.5 2.5 0 019.5 4h-1A3.5 3.5 0 0012 7.5v-1zM9.5 4A2.5 2.5 0 0112 1.5v-1A3.5 3.5 0 008.5 4h1zM12 1.5A2.5 2.5 0 0114.5 4h1A3.5 3.5 0 0012 .5v1z" fill="#000"/></svg><svg fill="none" viewBox="0 0 18 15" id="3" xmlns="http://www.w3.org/2000/svg"><path d="M12 13h4.111c.491 0 .889-.384.889-.857V1.857a.84.84 0 00-.26-.606m0 0A.903.903 0 0016.11 1H1.89a.903.903 0 00-.629.251m15.48 0l-6.483 6.251c-.694.67-1.82.67-2.514 0L1.26 1.252m0-.001a.84.84 0 00-.26.606V7m8.5 7.5v-1.25 0a2.75 2.75 0 00-2.75-2.75H1.5m0 0l2 2m-2-2l2-2" stroke="#000" stroke-linecap="round" stroke-linejoin="round"/></svg><svg fill="none" viewBox="0 0 18 18" id="4" xmlns="http://www.w3.org/2000/svg"><path d="M17 4.765L13.235 1l-2.823 2.824L4.765 9.47v3.764h3.764l5.648-5.647L17 4.765z" fill="#E1F3FD"/><path d="M13.235 1l.354-.354a.5.5 0 00-.707 0l.353.354zM17 4.765l.354.353a.5.5 0 000-.707L17 4.765zm-8.47 8.47v.5a.5.5 0 00.353-.146l-.354-.354zm-3.765 0h-.5a.5.5 0 00.5.5v-.5zm0-3.764l-.354-.354a.5.5 0 00-.146.354h.5zM16.059 17v.5a.5.5 0 00.5-.5h-.5zM1 17H.5a.5.5 0 00.5.5V17zM1 1.941v-.5a.5.5 0 00-.5.5H1zm5.647.5a.5.5 0 000-1v1zm9.912 8.912a.5.5 0 10-1 0h1zm-3.677-10l3.764 3.765.708-.707L13.589.646l-.707.708zM8.529 12.736H4.765v1h3.764v-1zm-3.264.5V9.471h-1v3.764h1zm-.147-3.41l5.647-5.648-.707-.707-5.647 5.647.707.707zm5.647-5.648l2.824-2.823-.707-.708-2.824 2.824.707.707zm5.881.234l-2.823 2.824.707.707 2.824-2.824-.708-.707zm-2.823 2.824l-5.647 5.647.707.707 5.647-5.647-.707-.707zm.707 0L10.765 3.47l-.707.707 3.765 3.765.707-.707zm1.529 9.265H1v1h15.059v-1zM1.5 17V1.941h-1V17h1zM1 2.441h5.647v-1H1v1zm14.559 8.912V17h1v-5.647h-1z" fill="#000"/></svg><svg fill="none" viewBox="0 0 16 22" id="5" xmlns="http://www.w3.org/2000/svg"><path d="M8 18l-.36.347a.5.5 0 00.706.014L8 18zm-5.5 3a.5.5 0 000 1v-1zm11 1a.5.5 0 000-1v1zM6 11.374v.5-.5zm4 0v.5-.5zM11.5 14a.5.5 0 001 0h-1zm-8 0a.5.5 0 001 0h-1zm11-6.026c0 1.756-.869 3.387-2.192 4.996-1.327 1.613-3.04 3.122-4.654 4.669l.692.722c1.57-1.504 3.358-3.082 4.735-4.756 1.38-1.679 2.419-3.534 2.419-5.63h-1zm-6.14 9.68c-1.515-1.573-3.208-3.057-4.58-4.688C2.421 11.35 1.5 9.72 1.5 7.974h-1c0 2.105 1.109 3.964 2.515 5.635 1.392 1.656 3.2 3.258 4.625 4.738l.72-.694zM1.5 7.973C1.5 4.4 4.408 1.5 8 1.5v-1C3.86.5.5 3.845.5 7.974h1zM8 1.5c3.592 0 6.5 2.9 6.5 6.474h1C15.5 3.844 12.14.5 8 .5v1zM2.5 22h11v-1h-11v1zm7-14.875c0 .926-.7 1.624-1.5 1.624v1c1.409 0 2.5-1.204 2.5-2.624h-1zM8 8.749c-.8 0-1.5-.698-1.5-1.624h-1c0 1.42 1.091 2.624 2.5 2.624v-1zM6.5 7.125C6.5 6.198 7.2 5.5 8 5.5v-1c-1.409 0-2.5 1.204-2.5 2.625h1zM8 5.5c.8 0 1.5.698 1.5 1.625h1C10.5 5.704 9.409 4.5 8 4.5v1zm-2 6.374h4v-1H6v1zm4 0c.387 0 .751.232 1.043.663.292.43.457.99.457 1.463h1a3.74 3.74 0 00-.629-2.024c-.403-.595-1.039-1.102-1.871-1.102v1zM4.5 14c0-.473.165-1.032.457-1.463.292-.43.656-.663 1.043-.663v-1c-.832 0-1.468.507-1.871 1.102A3.74 3.74 0 003.5 14h1z" fill="#000"/></svg><svg fill="none" viewBox="0 0 8 15" id="arrow" xmlns="http://www.w3.org/2000/svg"><path d="M1 .5l6 7-6 7" stroke="#000"/></svg><svg fill="none" viewBox="0 0 12 12" id="arrow-btn" xmlns="http://www.w3.org/2000/svg"><path d="M0 1h11m0 0v11m0-11L.647 11.353" stroke="#000"/></svg><svg fill="none" viewBox="0 0 20 8" id="arrow2" xmlns="http://www.w3.org/2000/svg"><path d="M19.575 4.354a.5.5 0 000-.708L16.393.464a.5.5 0 00-.708.708L18.514 4l-2.829 2.828a.5.5 0 00.708.708l3.181-3.182zM.787 4.5H19.22v-1H.787v1z" fill="#000"/></svg><svg fill="none" viewBox="0 0 26 24" id="burger1" xmlns="http://www.w3.org/2000/svg"><path d="M0 1h26M0 12h26M0 23h26" stroke="#CFEDFF" stroke-width="2"/></svg><svg fill="none" viewBox="0 0 26 26" id="burger2" xmlns="http://www.w3.org/2000/svg"><path d="M1 1h9v9H1V1zm0 15h9v9H1v-9zM16 1h9v9h-9V1zm0 15h9v9h-9v-9z" stroke="#000" stroke-width="2"/></svg><svg fill="none" viewBox="0 0 69 74" id="calendar" xmlns="http://www.w3.org/2000/svg"><path d="M1 17a.5.5 0 000 1v-1zm62 1a.5.5 0 000-1v1zm-41-6a.5.5 0 000 1v-1zm20 1a.5.5 0 000-1v1zm21.687 41.354a.5.5 0 00-.707-.708l.707.708zm-8.52 7.813l-.354.353a.5.5 0 00.707 0l-.353-.353zm-3.147-3.854a.5.5 0 00-.707.707l.707-.707zM63 48.554l-.262.426.262-.426zm0 17.892l-.262-.426.262.426zM4 5.5h56v-1H4v1zm56 67H4v1h56v-1zM1.5 70V8h-1v62h1zM4 72.5A2.5 2.5 0 011.5 70h-1A3.5 3.5 0 004 73.5v-1zM62.5 70a2.5 2.5 0 01-2.5 2.5v1a3.5 3.5 0 003.5-3.5h-1zM60 5.5A2.5 2.5 0 0162.5 8h1A3.5 3.5 0 0060 4.5v1zm-56-1A3.5 3.5 0 00.5 8h1A2.5 2.5 0 014 5.5v-1zm7.5-3v7h1v-7h-1zm0 7v-7h-1v7h1zm0 0h-1a1 1 0 001 1v-1zm0 0v1a1 1 0 001-1h-1zm0-7h1a1 1 0 00-1-1v1zm0-1a1 1 0 00-1 1h1v-1zm42 1v7h1v-7h-1zm0 7v-7h-1v7h1zm0 0h-1a1 1 0 001 1v-1zm0 0v1a1 1 0 001-1h-1zm0-7h1a1 1 0 00-1-1v1zm0-1a1 1 0 00-1 1h1v-1zM1 18h62v-1H1v1zm21-5h20v-1H22v1zm-8.5 15.5a1 1 0 01-1 1v1a2 2 0 002-2h-1zm-1 1a1 1 0 01-1-1h-1a2 2 0 002 2v-1zm-1-1a1 1 0 011-1v-1a2 2 0 00-2 2h1zm1-1a1 1 0 011 1h1a2 2 0 00-2-2v1zm14 1a1 1 0 01-1 1v1a2 2 0 002-2h-1zm-1 1a1 1 0 01-1-1h-1a2 2 0 002 2v-1zm-1-1a1 1 0 011-1v-1a2 2 0 00-2 2h1zm1-1a1 1 0 011 1h1a2 2 0 00-2-2v1zm14 1a1 1 0 01-1 1v1a2 2 0 002-2h-1zm-1 1a1 1 0 01-1-1h-1a2 2 0 002 2v-1zm-1-1a1 1 0 011-1v-1a2 2 0 00-2 2h1zm1-1a1 1 0 011 1h1a2 2 0 00-2-2v1zm14 1a1 1 0 01-1 1v1a2 2 0 002-2h-1zm-1 1a1 1 0 01-1-1h-1a2 2 0 002 2v-1zm-1-1a1 1 0 011-1v-1a2 2 0 00-2 2h1zm1-1a1 1 0 011 1h1a2 2 0 00-2-2v1zm-38 13a1 1 0 01-1 1v1a2 2 0 002-2h-1zm-1 1a1 1 0 01-1-1h-1a2 2 0 002 2v-1zm-1-1a1 1 0 011-1v-1a2 2 0 00-2 2h1zm1-1a1 1 0 011 1h1a2 2 0 00-2-2v1zm14 1a1 1 0 01-1 1v1a2 2 0 002-2h-1zm-1 1a1 1 0 01-1-1h-1a2 2 0 002 2v-1zm-1-1a1 1 0 011-1v-1a2 2 0 00-2 2h1zm1-1a1 1 0 011 1h1a2 2 0 00-2-2v1zm14 1a1 1 0 01-1 1v1a2 2 0 002-2h-1zm-1 1a1 1 0 01-1-1h-1a2 2 0 002 2v-1zm-1-1a1 1 0 011-1v-1a2 2 0 00-2 2h1zm1-1a1 1 0 011 1h1a2 2 0 00-2-2v1zm14 1a1 1 0 01-1 1v1a2 2 0 002-2h-1zm-1 1a1 1 0 01-1-1h-1a2 2 0 002 2v-1zm-1-1a1 1 0 011-1v-1a2 2 0 00-2 2h1zm1-1a1 1 0 011 1h1a2 2 0 00-2-2v1zm-38 13a1 1 0 01-1 1v1a2 2 0 002-2h-1zm-1 1a1 1 0 01-1-1h-1a2 2 0 002 2v-1zm-1-1a1 1 0 011-1v-1a2 2 0 00-2 2h1zm1-1a1 1 0 011 1h1a2 2 0 00-2-2v1zm14 1a1 1 0 01-1 1v1a2 2 0 002-2h-1zm-1 1a1 1 0 01-1-1h-1a2 2 0 002 2v-1zm-1-1a1 1 0 011-1v-1a2 2 0 00-2 2h1zm1-1a1 1 0 011 1h1a2 2 0 00-2-2v1zm14 1a1 1 0 01-1 1v1a2 2 0 002-2h-1zm-1 1a1 1 0 01-1-1h-1a2 2 0 002 2v-1zm-1-1a1 1 0 011-1v-1a2 2 0 00-2 2h1zm1-1a1 1 0 011 1h1a2 2 0 00-2-2v1zm24.48 2.146l-8.167 8.167.707.707 8.167-8.166-.707-.708zM51.313 59.02l3.5 3.5.707-.707-3.5-3.5-.707.707zM57.5 67.5c-5.523 0-10-4.477-10-10h-1c0 6.075 4.925 11 11 11v-1zm-10-10c0-5.523 4.477-10 10-10v-1c-6.075 0-11 4.925-11 11h1zm10-10a9.95 9.95 0 015.238 1.48l.524-.852A10.95 10.95 0 0057.5 46.5v1zm5.238 1.48A9.993 9.993 0 0167.5 57.5h1c0-3.963-2.096-7.436-5.238-9.372l-.524.852zM62.5 8v40.554h1V8h-1zm5 49.5a9.994 9.994 0 01-4.762 8.52l.524.852A10.994 10.994 0 0068.5 57.5h-1zm-4.762 8.52A9.95 9.95 0 0157.5 67.5v1a10.95 10.95 0 005.762-1.628l-.524-.852zM63.5 70v-3.554h-1V70h1z" fill="#000"/></svg><svg fill="none" viewBox="0 0 20 16" id="eye" xmlns="http://www.w3.org/2000/svg"><path d="M1 8l-.453-.212a.5.5 0 000 .424L1 8zm18 0l.453.212a.5.5 0 000-.424L19 8zM1 8l.453.212.001-.003a1.923 1.923 0 01.032-.066 15.065 15.065 0 01.543-.978c.385-.639.957-1.488 1.7-2.335C5.224 3.122 7.348 1.5 10 1.5v-1C6.923.5 4.547 2.378 2.976 4.17A17.626 17.626 0 00.71 7.466a10.691 10.691 0 00-.16.32l-.002.001L1 8zm9-6.5c2.65 0 4.775 1.622 6.272 3.33a16.617 16.617 0 012.242 3.313 6.854 6.854 0 01.033.069L19 8l.453-.212-.001-.002-.003-.005-.008-.018a8.796 8.796 0 00-.15-.297 17.635 17.635 0 00-2.267-3.296C15.453 2.378 13.077.5 10 .5v1zM19 8a99.694 99.694 0 01-.453-.212.2.2 0 01-.007.015 6.854 6.854 0 01-.134.265 16.618 16.618 0 01-2.134 3.102C14.775 12.878 12.65 14.5 10 14.5v1c3.077 0 5.453-1.878 7.024-3.67a17.636 17.636 0 002.267-3.296 10.585 10.585 0 00.15-.297l.008-.018.003-.005v-.001L19 8zm-9 6.5c-2.65 0-4.775-1.622-6.272-3.33a16.628 16.628 0 01-2.242-3.313 5.13 5.13 0 01-.032-.066l-.001-.003L1 8a56.988 56.988 0 00-.453.213l.001.001A2.168 2.168 0 00.59 8.3a16.067 16.067 0 00.583 1.052 17.628 17.628 0 001.803 2.478C4.547 13.622 6.923 15.5 10 15.5v-1zM12.2 8c0 1.432-1.033 2.5-2.2 2.5v1c1.816 0 3.2-1.618 3.2-3.5h-1zM10 10.5c-1.167 0-2.2-1.068-2.2-2.5h-1c0 1.882 1.384 3.5 3.2 3.5v-1zM7.8 8c0-1.432 1.033-2.5 2.2-2.5v-1C8.184 4.5 6.8 6.118 6.8 8h1zM10 5.5c1.167 0 2.2 1.068 2.2 2.5h1c0-1.882-1.384-3.5-3.2-3.5v1z" fill="#000"/></svg><svg fill="none" viewBox="0 0 20 20" id="eye_closed" xmlns="http://www.w3.org/2000/svg"><path d="M17.2 12.834C18.377 11.332 19 10 19 10s-3.273-7-9-7a6.971 6.971 0 00-1.8.236M10 7c.316 0 .618.06.9.17.767.302 1.375.978 1.646 1.83.1.313.154.65.154 1M1.9 1l16.2 18M10 13c-.316 0-.618-.06-.9-.17-.767-.302-1.375-.978-1.646-1.83a3.248 3.248 0 01-.117-.5M2.932 7c-.277.345-.526.682-.745 1C1.407 9.128 1 10 1 10s3.273 7 9 7c.307 0 .607-.02.9-.058" stroke="#000" stroke-linecap="round" stroke-linejoin="round"/></svg><svg fill="none" viewBox="0 0 64 33" id="logo" xmlns="http://www.w3.org/2000/svg"><path d="M41.722 1.022h12.546c3.027 0 5.414.828 7.142 2.495C63.136 5.183 64 7.525 64 10.55c0 2.985-.884 5.326-2.651 7.034-1.768 1.707-4.145 2.556-7.142 2.556h-7.883v10.775h-4.602V1.022zm4.602 4.11v10.899h7.253c1.727 0 3.068-.317 4.033-.951.955-.634 1.432-1.718 1.432-3.251V9.396c0-1.534-.477-2.628-1.432-3.282-.965-.655-2.306-.982-4.033-.982h-7.253zM4.602 1.022H0v29.894h4.602V1.022zM27.317 13.536v4.059h2.732c.366 3.118-.335 5.97-1.95 7.872-1.422 1.677-3.454 2.536-6.014 2.536-2.469 0-6.613-.675-6.613-5.163 0-3.303 3.657-5.337 6.278-5.337h1.737v-3.967h-1.95c-2.205 0-4.49-1.82-4.49-4.866 0-2.935 2.01-4.693 5.383-4.693 2.073 0 3.698.501 5.405 1.677l.335.235 2.459-3.282-.356-.256C27.936.695 25.57 0 22.339 0c-5.415 0-9.498 3.721-9.498 8.66 0 3.097 1.178 5.285 3.586 6.645-3.2 1.35-5.15 4.16-5.15 7.524 0 5.746 5.495 9.181 10.808 9.181 3.82 0 7.121-1.543 9.326-4.355 2.113-2.71 3.007-6.38 2.509-10.05h3.911v-4.069H27.317z" fill="#000"/></svg><svg fill="none" viewBox="0 0 40 40" id="man" xmlns="http://www.w3.org/2000/svg"><circle cx="20" cy="20" r="20" fill="#000"/><mask id="oa" style="mask-type:alpha" maskUnits="userSpaceOnUse" x="0" y="0" width="40" height="40"><circle cx="20" cy="20" r="20" fill="#000"/></mask><g mask="url(#oa)" stroke="#fff" stroke-width="2"><circle cx="20" cy="17" r="9"/><path d="M33 35c0 2.355-1.334 4.58-3.682 6.257C26.973 42.933 23.682 44 20 44c-3.682 0-6.973-1.067-9.318-2.743C8.334 39.581 7 37.355 7 35c0-2.355 1.334-4.58 3.682-6.257C13.027 27.067 16.318 26 20 26c3.682 0 6.973 1.067 9.318 2.743C31.666 30.419 33 32.645 33 35z"/></g></svg><svg fill="none" viewBox="0 0 24 23" id="search" xmlns="http://www.w3.org/2000/svg"><path d="M18.32 18l4.304 4.293m-1.617-11.115c0 5.524-4.479 10.003-10.003 10.003C5.479 21.181 1 16.702 1 11.177 1 5.654 5.479 1.175 11.004 1.175c5.525 0 10.003 4.479 10.003 10.004z" stroke="#000" stroke-width="2"/></svg><svg fill="none" viewBox="0 0 23 22" id="search-orange" xmlns="http://www.w3.org/2000/svg"><circle cx="10.083" cy="10.083" r="9.083" stroke="#F04E00" stroke-width="2"/><path stroke="#F04E00" stroke-width="2" d="M16.573 15.793l5.5 5.5"/></svg></svg>