<svg width="35" height="35" viewBox="0 0 35 35" fill="none" xmlns="http://www.w3.org/2000/svg">
<circle cx="17.5" cy="17.5" r="17" fill="#CFEDFF" stroke="#CFEDFF"/>
<path d="M25.4996 21.7155L25.4995 21.7155V21.728L25.4995 24.2872L25.4995 24.2892C25.5023 24.974 24.874 25.5579 24.181 25.4954L24.1584 25.4933L24.1357 25.4933C15.8886 25.4998 9.50022 19.0529 9.50667 10.8602L9.50669 10.8374L9.50464 10.8147C9.44247 10.1282 10.0214 9.50087 10.7079 9.50008H13.272V9.50011L13.2769 9.50006C13.5707 9.49717 13.8553 9.60101 14.0778 9.79198C14.2253 9.91856 14.3926 10.1541 14.5558 10.4953C14.7152 10.8284 14.854 11.2269 14.9619 11.6419C15.1839 12.4959 15.2485 13.3142 15.1626 13.7162C15.1046 13.9875 14.9315 14.2498 14.6603 14.5366C14.5266 14.678 14.3793 14.8151 14.2228 14.958C14.201 14.9779 14.1789 14.9981 14.1566 15.0184C14.0237 15.1395 13.8837 15.267 13.7564 15.394L13.4862 15.6637L13.6752 15.9954C14.9366 18.2094 16.7733 20.0424 18.9915 21.3012L19.3223 21.4889L19.5915 21.2203C19.7187 21.0933 19.8465 20.9536 19.9678 20.8209C19.9882 20.7986 20.0084 20.7766 20.0283 20.7548C20.1715 20.5987 20.3089 20.4516 20.4506 20.3182C20.7379 20.0476 21.0009 19.8745 21.2734 19.8165C21.6776 19.7305 22.5012 19.7954 23.3593 20.0184C23.7765 20.1268 24.1767 20.2663 24.5108 20.4265C24.8531 20.5906 25.0882 20.7586 25.2136 20.9063C25.4053 21.1321 25.507 21.4201 25.4996 21.7155Z" stroke="black"/>
</svg>
